<?xml version="1.0" encoding="UTF-8"?><svg id="_Слой_2" xmlns="http://www.w3.org/2000/svg" width="140" height="140" viewBox="0 0 140 140"><g id="_Слой_1-2"><circle id="_подложка" cx="70" cy="70" r="70" style="fill:#31a8dd; stroke-width:0px;"/><path d="M106.94,25.91L10.76,63.01c-2.38.92-2.36,4.28.02,5.17l23.44,8.76,9.09,29.18c.57,1.87,2.85,2.56,4.38,1.31l13.07-10.64c1.36-1.12,3.31-1.18,4.74-.13l23.57,17.11c1.62,1.18,3.92.3,4.33-1.67l17.27-83.03c.44-2.15-1.67-3.94-3.71-3.13ZM88.59,45.33l-37.8,35.13c-1.33,1.25-2.18,2.9-2.43,4.69l-1.28,9.54c-.18,1.28-1.97,1.41-2.31.16l-4.95-17.4c-.57-1.98.25-4.1,2.02-5.18l45.81-28.21c.82-.51,1.66.61.95,1.26Z" style="fill:#fff; stroke-width:0px;"/><path d="M88.59,45.33l-37.8,35.13c-1.33,1.25-2.18,2.9-2.43,4.69l-1.28,9.54c-.18,1.28-1.97,1.41-2.31.16l-4.95-17.4c-.57-1.98.25-4.1,2.02-5.18l45.81-28.21c.82-.51,1.66.61.95,1.26Z" style="fill:#e1e4e5; stroke-width:0px;"/></g></svg>