<?xml version="1.0" encoding="UTF-8"?><svg id="_Слой_2" xmlns="http://www.w3.org/2000/svg" width="140" height="140" viewBox="0 0 140 140"><g id="_Слой_1-2"><circle id="_подложка" cx="70" cy="70" r="70" style="fill:#31a8dd; stroke-width:0px;"/><path d="M114.5,40.64c-1.46.65-2.97,1.2-4.51,1.64,1.82-2.06,3.21-4.48,4.06-7.14.19-.59,0-1.25-.5-1.63-.49-.39-1.17-.44-1.7-.12-3.27,1.94-6.79,3.33-10.49,4.15-3.72-3.64-8.78-5.71-14.01-5.71-11.04,0-20.01,8.98-20.01,20.01,0,.87.06,1.73.16,2.59-13.69-1.2-26.43-7.93-35.17-18.66-.31-.38-.79-.59-1.28-.55-.49.04-.93.32-1.18.74-1.77,3.04-2.71,6.52-2.71,10.06,0,4.82,1.72,9.4,4.76,12.97-.92-.32-1.82-.72-2.68-1.2-.46-.26-1.02-.25-1.48,0-.46.26-.74.74-.76,1.27,0,.09,0,.18,0,.27,0,7.2,3.87,13.68,9.8,17.21-.51-.05-1.02-.12-1.52-.22-.52-.1-1.06.08-1.41.48-.35.4-.47.95-.31,1.46,2.19,6.84,7.84,11.88,14.66,13.41-5.66,3.54-12.13,5.4-18.93,5.4-1.42,0-2.84-.08-4.24-.25-.69-.08-1.36.33-1.59.99-.24.66.01,1.39.6,1.77,8.73,5.6,18.82,8.55,29.19,8.55,20.38,0,33.12-9.61,40.23-17.67,8.86-10.05,13.94-23.35,13.94-36.5,0-.55,0-1.1-.03-1.66,3.5-2.63,6.5-5.82,8.95-9.48.37-.56.33-1.29-.1-1.8-.43-.51-1.15-.68-1.76-.41Z" style="fill:#fff; stroke-width:0px;"/></g></svg>