<?xml version="1.0" encoding="UTF-8"?><svg id="_Слой_2" xmlns="http://www.w3.org/2000/svg" width="140" height="140" xmlns:xlink="http://www.w3.org/1999/xlink" viewBox="0 0 140 140"><defs><linearGradient id="_Безымянный_градиент_12" x1="70.02" y1="77.55" x2="70.41" y2="122.73" gradientUnits="userSpaceOnUse"><stop offset=".21" stop-color="#5c97ee"/><stop offset=".35" stop-color="#6796ef"/><stop offset="1" stop-color="#9a95f9"/></linearGradient><linearGradient id="_Безымянный_градиент_11" x1="120.45" y1="88.72" x2="75.33" y2="9.07" gradientUnits="userSpaceOnUse"><stop offset=".11" stop-color="#5c97ee"/><stop offset=".26" stop-color="#6796ef"/><stop offset="1" stop-color="#9a95f9"/></linearGradient><linearGradient id="_Безымянный_градиент_11-2" x1="56.38" y1="15.43" x2="20.42" y2="90.07" xlink:href="#_Безымянный_градиент_11"/></defs><g id="_Слой_1-2"><circle id="_подложка" cx="70" cy="70" r="70" style="fill:#fff; stroke-width:0px;"/><path d="M65.36,77.66l-40.42,22.18,11.05,17.94c2.68,4.35,7.43,7,12.54,7h43.9c5.75,0,11.06-3.09,13.9-8.1l9.16-17.05-40.04-21.97c-3.14-1.72-6.94-1.72-10.08,0Z" style="fill:url(#_Безымянный_градиент_12); stroke-width:0px;"/><path d="M128.84,74.66l-15.75,29.46c-.72,1.35-2.56,1.47-3.33.21L57.27,18.35c-.79-1.3.14-3.06,1.66-3.14l32.12.02c4.94-.25,9.55,2.15,12.18,6.34l25.31,40.26c2.39,3.79,2.5,8.72.3,12.83Z" style="fill:url(#_Безымянный_градиент_11); stroke-width:0px;"/><path d="M44.27,15.22h31.62c1.45,0,2.3,1.67,1.59,2.94L29.85,102.79c-.73,1.31-2.61,1.31-3.35,0l-15.08-26.65c-2.39-4.23-2.43-9.39-.11-13.66l22.39-41.01c2.11-3.87,6.17-6.26,10.57-6.25Z" style="fill:url(#_Безымянный_градиент_11-2); stroke-width:0px;"/></g></svg>