<svg width="163" height="164" viewBox="0 0 163 164" fill="none" xmlns="http://www.w3.org/2000/svg">
<g filter="url(#filter0_d_2009_129)">
<path d="M35.5063 17.942C31.4618 22.1485 29.1309 27.8987 29.0115 33.9647C25.795 34.6003 22.7613 36.0045 20.1353 38.0732C17.5094 40.1419 15.3585 42.8219 13.8423 45.9144C12.3262 49.007 11.4836 52.4328 11.3771 55.9376C11.2706 59.4425 11.9029 62.9364 13.2271 66.1604C14.5513 69.3844 16.5335 72.2556 19.0266 74.5611C21.5196 76.8665 24.4596 78.5471 27.6284 79.4781C30.7973 80.4092 34.1136 80.5667 37.3315 79.9392C40.5494 79.3116 43.5863 77.915 46.2168 75.853C46.2326 75.8489 46.2489 75.8477 46.2652 75.8492L92.3379 118.05L92.343 118.115C90.8525 121.222 90.0383 124.656 89.9608 128.162C89.8832 131.668 90.5443 135.156 91.895 138.368C93.2456 141.579 95.2512 144.432 97.763 146.714C100.275 148.996 103.228 150.649 106.404 151.55C109.58 152.451 112.898 152.577 116.11 151.919C119.322 151.261 122.347 149.836 124.96 147.749C127.573 145.662 129.708 142.967 131.205 139.863C132.702 136.76 133.524 133.328 133.609 129.823C136.826 129.187 139.859 127.783 142.485 125.714C145.111 123.645 147.262 120.965 148.778 117.873C150.295 114.78 151.137 111.355 151.244 107.85C151.35 104.345 150.718 100.851 149.394 97.6269C148.069 94.403 146.087 91.5318 143.594 89.2263C141.101 86.9208 138.161 85.2402 134.992 84.3092C131.823 83.3782 128.507 83.2206 125.289 83.8482C122.071 84.4757 119.034 85.8723 116.404 87.9344C116.388 87.9369 116.372 87.9382 116.356 87.9381L70.2808 45.7113L70.2757 45.6466C72.6737 40.7271 73.341 35.0333 72.1572 29.5925C70.9734 24.1517 68.0164 19.3222 63.8197 15.9754C59.6231 12.6285 54.4632 10.9847 49.271 11.3406C44.0788 11.6965 39.1963 14.0286 35.5043 17.9161L35.5063 17.942ZM58.0599 24.369C60.3826 26.2253 62.0201 28.8999 62.6788 31.9128C63.3374 34.9257 62.974 38.0797 61.6537 40.8091C60.6318 42.8883 60.3056 45.2856 60.7288 47.6063C61.152 49.9269 62.2994 52.0326 63.982 53.5766L110.083 95.8339C111.77 97.3716 113.89 98.2544 116.093 98.337C118.296 98.4195 120.452 97.6968 122.206 96.288C123.775 95.0564 125.603 94.2524 127.534 93.9447C129.466 93.637 131.443 93.8346 133.297 94.5207C135.152 95.2068 136.828 96.3611 138.184 97.885C139.541 99.409 140.536 101.257 141.085 103.273C141.635 105.288 141.722 107.411 141.34 109.459C140.958 111.508 140.117 113.422 138.891 115.038C137.664 116.655 136.087 117.925 134.294 118.741C132.502 119.558 130.546 119.896 128.596 119.727C127.896 119.665 127.194 119.766 126.538 120.022C125.882 120.279 125.287 120.685 124.795 121.213C124.302 121.741 123.923 122.379 123.684 123.081C123.446 123.784 123.353 124.536 123.412 125.284C123.434 125.551 123.475 125.815 123.534 126.076C123.991 128.114 123.982 130.235 123.509 132.258C123.035 134.281 122.111 136.147 120.815 137.696C119.518 139.245 117.888 140.432 116.063 141.156C114.237 141.88 112.271 142.119 110.331 141.854C108.391 141.588 106.534 140.826 104.919 139.631C103.304 138.436 101.979 136.845 101.055 134.992C100.131 133.139 99.6373 131.079 99.6146 128.988C99.5919 126.897 100.041 124.836 100.925 122.982C101.947 120.902 102.273 118.505 101.85 116.184C101.426 113.864 100.279 111.758 98.5964 110.214L52.495 67.9567C50.8103 66.4251 48.6958 65.5459 46.4978 65.4631C44.2998 65.3802 42.1487 66.0987 40.3969 67.5008C38.8278 68.7324 36.9996 69.5363 35.0684 69.844C33.1371 70.1518 31.1599 69.9542 29.3054 69.2681C27.451 68.5819 25.7742 67.4277 24.4181 65.9037C23.0621 64.3798 22.0669 62.5313 21.5175 60.5159C20.968 58.5005 20.8807 56.378 21.2628 54.3294C21.6449 52.2807 22.4852 50.3666 23.712 48.7504C24.9388 47.1342 26.5158 45.8637 28.3084 45.0473C30.101 44.2309 32.0561 43.8928 34.007 44.0618C34.7691 44.1291 35.5333 44.0029 36.2374 43.6936C36.9415 43.3843 37.5656 42.9005 38.0589 42.2818C38.5522 41.663 38.9008 40.9267 39.0762 40.1327C39.2516 39.3388 39.249 38.5098 39.0684 37.7131C38.4643 35.1075 38.6258 32.3744 39.5307 29.8882C40.4355 27.402 42.0395 25.2844 44.1229 23.8256C46.2062 22.3668 48.6669 21.6383 51.1677 21.7398C53.6686 21.8413 56.0872 22.7678 58.0921 24.3925L58.0599 24.369Z" fill="white"/>
</g>
<defs>
<filter id="filter0_d_2009_129" x="0.0657225" y="-0.00703144" width="162.49" height="163.641" filterUnits="userSpaceOnUse" color-interpolation-filters="sRGB">
<feFlood flood-opacity="0" result="BackgroundImageFix"/>
<feColorMatrix in="SourceAlpha" type="matrix" values="0 0 0 0 0 0 0 0 0 0 0 0 0 0 0 0 0 0 127 0" result="hardAlpha"/>
<feOffset/>
<feGaussianBlur stdDeviation="5.65"/>
<feComposite in2="hardAlpha" operator="out"/>
<feColorMatrix type="matrix" values="0 0 0 0 0.909804 0 0 0 0 0.262745 0 0 0 0 0.254902 0 0 0 1 0"/>
<feBlend mode="normal" in2="BackgroundImageFix" result="effect1_dropShadow_2009_129"/>
<feBlend mode="normal" in="SourceGraphic" in2="effect1_dropShadow_2009_129" result="shape"/>
</filter>
</defs>
</svg>
