<svg width="198" height="211" viewBox="0 0 198 211" fill="none" xmlns="http://www.w3.org/2000/svg">
<g filter="url(#filter0_i_2009_123)">
<path d="M81.5812 21.8503C85.5487 26.0174 88.0191 31.3922 88.5496 37.0118C89.0802 42.6314 87.6363 48.1284 84.4767 52.518C83.59 53.7117 83.1529 55.2065 83.2385 56.753C83.324 58.2995 83.9269 59.8042 84.9467 61.0161L140.349 126.971C141.367 128.185 142.74 129.033 144.241 129.374C145.741 129.716 147.277 129.53 148.593 128.847C151.87 127.214 155.54 126.44 159.288 126.592C163.037 126.744 166.754 127.818 170.121 129.72C173.488 131.623 176.405 134.298 178.624 137.518C180.842 140.737 182.297 144.406 182.862 148.21C183.427 152.014 183.087 155.841 181.871 159.364C180.654 162.886 178.597 166 175.876 168.439C173.154 170.878 169.848 172.57 166.241 173.37C162.634 174.17 158.832 174.055 155.161 173.034C155.552 176.849 155.034 180.644 153.653 184.093C152.271 187.543 150.066 190.545 147.226 192.843C144.386 195.141 140.996 196.668 137.345 197.292C133.694 197.916 129.89 197.619 126.258 196.427C122.627 195.235 119.275 193.182 116.49 190.445C113.705 187.708 111.568 184.367 110.264 180.708C108.959 177.049 108.524 173.18 108.997 169.432C109.47 165.684 110.836 162.168 112.978 159.185C113.865 157.991 114.302 156.496 114.216 154.95C114.131 153.403 113.528 151.899 112.508 150.687L57.1058 84.7317C56.0881 83.5181 54.7145 82.6698 53.2142 82.3285C51.714 81.9871 50.1777 82.1733 48.8617 82.8559C45.5846 84.4889 41.9151 85.2624 38.1664 85.1104C34.4177 84.9583 30.7012 83.8852 27.3343 81.9828C23.9673 80.0803 21.0499 77.4049 18.8312 74.1851C16.6124 70.9653 15.1583 67.2967 14.5928 63.4925C14.0274 59.6883 14.3675 55.8616 15.5841 52.3391C16.8007 48.8166 18.8576 45.703 21.5793 43.264C24.301 40.825 27.6065 39.1333 31.2136 38.3331C34.8208 37.5329 38.6224 37.6481 42.2939 38.6689C41.7885 33.81 42.7586 29.0088 45.0722 24.9185C47.3859 20.8283 50.9307 17.6478 55.2242 15.8098C59.5178 13.9717 64.3515 13.5655 69.0676 14.6463C73.7837 15.7272 78.1531 18.2426 81.5812 21.8503Z" fill="white"/>
</g>
<path d="M47.4157 12.2629C41.2048 16.5732 37.0587 23.3014 35.8626 31.0107C31.3853 30.9809 27.0252 31.9797 23.1056 33.9329C19.1861 35.8861 15.8078 38.7436 13.2212 42.2935C10.6347 45.8434 8.90629 49.9946 8.16425 54.4391C7.42222 58.8836 7.68559 63.5074 8.93482 67.9675C10.1841 72.4276 12.3871 76.6096 15.3805 80.2032C18.374 83.7968 22.081 86.7099 26.2266 88.7263C30.3722 90.7427 34.8501 91.8107 39.328 91.8511C43.8059 91.8916 48.169 90.9033 52.0936 88.9598C52.1157 88.9588 52.1381 88.9614 52.1599 88.9676L107.549 154.862L107.545 154.946C104.991 158.521 103.299 162.69 102.597 167.144C101.894 171.597 102.197 176.221 103.484 180.673C104.772 185.124 107.01 189.288 110.032 192.857C113.055 196.425 116.785 199.307 120.946 201.287C125.106 203.267 129.591 204.295 134.066 204.295C138.542 204.295 142.894 203.267 146.799 201.287C150.704 199.307 154.063 196.426 156.625 192.858C159.188 189.289 160.889 185.125 161.602 180.674C166.08 180.703 170.44 179.705 174.359 177.751C178.279 175.798 181.657 172.941 184.244 169.391C186.83 165.841 188.559 161.69 189.301 157.245C190.043 152.801 189.779 148.177 188.53 143.717C187.281 139.257 185.078 135.075 182.084 131.481C179.091 127.887 175.384 124.974 171.238 122.958C167.093 120.942 162.615 119.873 158.137 119.833C153.659 119.793 149.296 120.781 145.371 122.724C145.349 122.724 145.327 122.721 145.305 122.717L89.9176 56.7884L89.9218 56.7045C94.0176 51.054 95.8944 43.9629 95.2138 36.7108C94.5331 29.4586 91.3396 22.5229 86.2097 17.1551C81.0797 11.7872 74.351 8.34078 67.2377 7.43755C60.1243 6.53432 53.0948 8.23377 47.4173 12.2293L47.4157 12.2629ZM76.9553 26.3599C79.7938 29.3359 81.5623 33.1768 81.9435 37.1936C82.3246 41.2104 81.2933 45.1401 79.0348 48.2777C77.2924 50.6637 76.4407 53.6375 76.62 56.7095C76.7993 59.7814 77.9989 62.7682 80.0212 65.1782L135.44 131.152C137.469 133.555 140.197 135.236 143.176 135.917C146.155 136.599 149.206 136.24 151.828 134.901C154.169 133.739 156.79 133.191 159.465 133.304C162.141 133.416 164.793 134.185 167.195 135.545C169.597 136.905 171.678 138.817 173.26 141.116C174.843 143.415 175.879 146.034 176.282 148.749C176.685 151.465 176.442 154.196 175.574 156.71C174.705 159.224 173.238 161.447 171.296 163.189C169.354 164.93 166.995 166.139 164.421 166.713C161.847 167.286 159.134 167.206 156.513 166.48C155.574 166.218 154.603 166.163 153.668 166.319C152.733 166.475 151.856 166.838 151.096 167.383C150.337 167.928 149.714 168.643 149.27 169.477C148.826 170.311 148.571 171.246 148.524 172.216C148.51 172.562 148.52 172.911 148.556 173.258C148.829 175.979 148.455 178.683 147.467 181.14C146.479 183.598 144.906 185.737 142.881 187.375C140.856 189.013 138.439 190.102 135.837 190.548C133.234 190.995 130.522 190.787 127.932 189.941C125.342 189.095 122.95 187.636 120.96 185.689C118.97 183.743 117.441 181.365 116.502 178.759C115.563 176.153 115.243 173.396 115.569 170.722C115.894 168.047 116.856 165.536 118.372 163.4C120.114 161.014 120.966 158.04 120.787 154.968C120.607 151.896 119.408 148.909 117.386 146.499L61.9672 80.5251C59.9399 78.1303 57.2176 76.4555 54.2461 75.7752C51.2746 75.0949 48.2302 75.4494 45.6117 76.7806C43.2705 77.942 40.6503 78.4899 37.9745 78.3777C35.2987 78.2655 32.6468 77.4964 30.2447 76.1362C27.8427 74.7759 25.7619 72.8647 24.1796 70.5655C22.5973 68.2664 21.5606 65.6475 21.1578 62.9321C20.755 60.2168 20.9981 57.4855 21.8664 54.9712C22.7346 52.4569 24.2022 50.2342 26.1441 48.4925C28.086 46.7508 30.4445 45.5419 33.0186 44.9687C35.5928 44.3956 38.3061 44.4752 40.9272 45.2009C41.9508 45.486 43.0104 45.5248 44.0195 45.3142C45.0286 45.1035 45.9588 44.6494 46.7344 43.9888C47.5099 43.3282 48.1089 42.4797 48.4825 41.5125C48.8561 40.5453 48.9938 39.4867 48.8843 38.4229C48.5078 34.9401 49.193 31.4947 50.8459 28.5588C52.4987 25.6228 55.0384 23.34 58.1169 22.0231C61.1953 20.7063 64.662 20.4199 68.0416 21.2032C71.4213 21.9865 74.5486 23.8011 76.995 26.3984L76.9553 26.3599Z" fill="black"/>
<defs>
<filter id="filter0_i_2009_123" x="10.3271" y="10.0544" width="172.801" height="187.556" filterUnits="userSpaceOnUse" color-interpolation-filters="sRGB">
<feFlood flood-opacity="0" result="BackgroundImageFix"/>
<feBlend mode="normal" in="SourceGraphic" in2="BackgroundImageFix" result="shape"/>
<feColorMatrix in="SourceAlpha" type="matrix" values="0 0 0 0 0 0 0 0 0 0 0 0 0 0 0 0 0 0 127 0" result="hardAlpha"/>
<feOffset dx="-10" dy="-11"/>
<feGaussianBlur stdDeviation="2"/>
<feComposite in2="hardAlpha" operator="arithmetic" k2="-1" k3="1"/>
<feColorMatrix type="matrix" values="0 0 0 0 0 0 0 0 0 0 0 0 0 0 0 0 0 0 0.35 0"/>
<feBlend mode="normal" in2="shape" result="effect1_innerShadow_2009_123"/>
</filter>
</defs>
</svg>
