<svg width="303" height="320" viewBox="0 0 303 320" fill="none" xmlns="http://www.w3.org/2000/svg">
<g filter="url(#filter0_d_2009_57)">
<path d="M281.505 116.082C275.577 123.084 267.476 127.918 258.653 129.72C249.83 131.522 240.862 130.172 233.356 125.914C231.31 124.712 228.864 124.275 226.426 124.675C223.987 125.075 221.704 126.288 219.957 128.111L124.861 227.211C123.111 229.032 122.001 231.354 121.718 233.791C121.434 236.227 121.993 238.631 123.303 240.601C126.456 245.516 128.314 251.201 128.717 257.17C129.12 263.138 128.057 269.213 125.618 274.876C123.179 280.539 119.437 285.621 114.711 289.688C109.985 293.756 104.416 296.688 98.4786 298.235C92.5415 299.781 86.4129 299.896 80.6163 298.57C74.8196 297.243 69.527 294.515 65.1903 290.617C60.8537 286.719 57.6019 281.768 55.7125 276.187C53.8231 270.606 53.3524 264.559 54.3404 258.565C48.3556 259.836 42.2478 259.664 36.5386 258.064C30.8294 256.463 25.6883 253.481 21.5543 249.372C17.4203 245.263 14.4163 240.15 12.7987 234.468C11.181 228.787 10.9979 222.706 12.2649 216.745C13.5319 210.784 16.2113 205.121 20.0745 200.237C23.9377 195.354 28.8697 191.397 34.4496 188.703C40.0295 186.009 46.0915 184.659 52.1178 184.768C58.1442 184.876 63.956 186.441 69.0569 189.327C71.1029 190.529 73.5491 190.966 75.9875 190.566C78.4259 190.167 80.7091 188.954 82.4562 187.13L177.552 88.0303C179.303 86.2095 180.412 83.8871 180.696 81.4504C180.979 79.0137 180.42 76.6101 179.111 74.6406C175.957 69.7248 174.099 64.0399 173.696 58.0714C173.293 52.1028 174.356 46.0278 176.795 40.3652C179.234 34.7026 182.976 29.6205 187.702 25.5529C192.428 21.4853 197.997 18.553 203.935 17.0065C209.872 15.4599 216 15.345 221.797 16.6715C227.594 17.998 232.886 20.7266 237.223 24.6242C241.559 28.5218 244.811 33.4727 246.701 39.0542C248.59 44.6356 249.061 50.6818 248.073 56.6765C255.693 55.0448 263.476 55.762 270.362 58.7306C277.247 61.6992 282.902 66.775 286.556 73.2671C290.209 79.7592 291.685 87.3525 290.781 95.0134C289.877 102.674 286.638 110.031 281.505 116.082Z" fill="white"/>
<path d="M290.84 60.2822C282.935 51.1732 271.549 45.7505 259.115 45.1722C258.393 38.0694 256.059 31.3283 252.287 25.4487C248.515 19.5692 243.401 14.7021 237.326 11.2086C231.25 7.71501 224.368 5.68461 217.191 5.26797C210.013 4.85133 202.724 6.05914 195.864 8.80182C189.004 11.5445 182.749 15.7517 177.563 21.1112C172.377 26.4708 168.394 32.8452 165.908 39.7617C163.422 46.6782 162.498 53.9592 163.203 61.0647C163.909 68.1702 166.227 74.9179 169.984 80.8071C169.99 80.842 169.989 80.878 169.983 80.9136L74.9805 179.982L74.8466 179.989C68.7365 176.552 61.8328 174.583 54.6475 174.23C47.4622 173.877 40.1797 175.148 33.3402 177.95C26.5007 180.751 20.2798 185.011 15.1388 190.413C9.99785 195.815 6.06877 202.22 3.64304 209.154C1.21731 216.088 0.357174 223.373 1.12643 230.468C1.89569 237.562 4.2746 244.285 8.08671 250.138C11.8988 255.99 17.0463 260.822 23.1473 264.274C29.2483 267.727 36.1463 269.711 43.3297 270.081C44.0521 277.184 46.386 283.925 50.158 289.805C53.9301 295.684 59.0435 300.551 65.1191 304.045C71.1948 307.538 78.0766 309.569 85.2542 309.986C92.4318 310.402 99.721 309.194 106.581 306.452C113.441 303.709 119.696 299.502 124.882 294.142C130.067 288.783 134.051 282.408 136.537 275.492C139.023 268.575 139.947 261.294 139.241 254.189C138.536 247.083 136.218 240.336 132.46 234.446C132.458 234.411 132.459 234.376 132.461 234.34L227.518 135.269L227.652 135.261C237.319 140.788 248.89 142.551 260.276 140.233C271.663 137.914 282.116 131.666 289.748 122.616C297.381 113.567 301.691 102.311 301.901 90.8802C302.111 79.4494 298.207 68.5963 290.893 60.2791L290.84 60.2822ZM273.556 109.519C269.324 114.528 263.535 117.988 257.229 119.278C250.923 120.569 244.512 119.606 239.147 116.562C235.063 114.208 230.199 113.366 225.357 114.175C220.515 114.985 215.984 117.397 212.508 121.015L117.385 220.143C113.921 223.77 111.725 228.383 111.156 233.221C110.587 238.06 111.681 242.836 114.256 246.763C116.501 250.276 117.82 254.336 118.102 258.597C118.384 262.858 117.62 267.194 115.876 271.234C114.131 275.274 111.457 278.9 108.082 281.801C104.707 284.702 100.731 286.793 96.4929 287.896C92.2549 288.999 87.8807 289.08 83.7432 288.133C79.6057 287.187 75.8276 285.24 72.731 282.46C69.6345 279.679 67.3113 276.147 65.9597 272.164C64.6081 268.181 64.268 263.866 64.9685 259.587C65.2227 258.054 65.1431 256.506 64.7352 255.05C64.3273 253.595 63.6007 252.266 62.6054 251.155C61.6102 250.045 60.37 249.179 58.9701 248.618C57.5703 248.057 56.0442 247.813 54.4967 247.904C53.9454 247.94 53.3947 248.016 52.849 248.132C48.581 249.03 44.2276 248.9 40.1591 247.754C36.0905 246.608 32.4273 244.479 29.4809 241.549C26.5346 238.619 24.3923 234.974 23.2364 230.924C22.0805 226.875 21.9452 222.54 22.8418 218.29C23.7385 214.039 25.6407 209.999 28.3867 206.511C31.1326 203.024 34.6409 200.193 38.6133 198.259C42.5857 196.326 46.9045 195.347 51.2023 195.406C55.5002 195.465 59.65 196.56 63.2986 198.598C67.3829 200.953 72.2465 201.794 77.0884 200.985C81.9304 200.176 86.4621 197.764 89.9373 194.146L185.061 95.0175C188.511 91.3945 190.7 86.7926 191.268 81.9658C191.836 77.139 190.751 72.3735 188.189 68.4501C185.944 64.9371 184.625 60.8771 184.343 56.6162C184.061 52.3552 184.825 48.0198 186.57 43.9795C188.314 39.9392 190.988 36.3138 194.363 33.4126C197.738 30.5114 201.714 28.4203 205.952 27.3176C210.19 26.215 214.564 26.1335 218.702 27.0801C222.839 28.0267 226.618 29.9734 229.714 32.754C232.811 35.5347 235.134 39.0669 236.485 43.0496C237.837 47.0322 238.177 51.3471 237.477 55.6263C237.2 57.2977 237.321 58.9839 237.829 60.5476C238.336 62.1113 239.216 63.5083 240.398 64.6248C241.579 65.7414 243.028 66.5459 244.626 66.9728C246.225 67.3997 247.927 67.437 249.596 67.0817C255.056 65.8896 260.639 66.3869 265.58 68.5053C270.521 70.6236 274.579 74.2595 277.197 78.9145C279.815 83.5696 280.865 89.016 280.204 94.5075C279.542 99.999 277.202 105.267 273.502 109.589L273.556 109.519Z" fill="black"/>
</g>
<defs>
<filter id="filter0_d_2009_57" x="0.853027" y="5.18762" width="301.056" height="313.952" filterUnits="userSpaceOnUse" color-interpolation-filters="sRGB">
<feFlood flood-opacity="0" result="BackgroundImageFix"/>
<feColorMatrix in="SourceAlpha" type="matrix" values="0 0 0 0 0 0 0 0 0 0 0 0 0 0 0 0 0 0 127 0" result="hardAlpha"/>
<feOffset dy="9.07407"/>
<feComposite in2="hardAlpha" operator="out"/>
<feColorMatrix type="matrix" values="0 0 0 0 0 0 0 0 0 0 0 0 0 0 0 0 0 0 1 0"/>
<feBlend mode="normal" in2="BackgroundImageFix" result="effect1_dropShadow_2009_57"/>
<feBlend mode="normal" in="SourceGraphic" in2="effect1_dropShadow_2009_57" result="shape"/>
</filter>
</defs>
</svg>
