<svg width="318" height="245" viewBox="0 0 318 245" fill="none" xmlns="http://www.w3.org/2000/svg">
<g filter="url(#filter0_d_8079_5)">
<circle cx="195.806" cy="121.947" r="80.5337" transform="rotate(33.2702 195.806 121.947)" fill="white"/>
<path d="M159.833 176.773C189.751 196.403 229.919 188.062 249.549 158.145C269.179 128.227 260.839 88.0586 230.921 68.4286C201.003 48.7986 160.835 57.1388 141.205 87.0565C121.575 116.974 129.915 157.143 159.833 176.773ZM211.912 169.66C211.322 171.739 208.911 172.623 207.155 171.541L145.842 131.312C144.118 130.181 143.937 127.666 145.528 126.315L151.291 121.29C152.329 120.351 153.88 120.242 155.062 121.017L155.604 121.373L180.711 83.1076C179.547 80.3715 181.383 76.7149 184.946 76.8685L222.073 78.2628C223.74 78.2996 225.217 79.269 225.914 80.7832L241.925 114.254C243.484 117.461 240.86 120.601 237.838 120.59L212.763 158.806L212.615 158.709C213.748 159.453 214.298 160.87 213.931 162.179L211.912 169.66Z" fill="#E84341"/>
<path d="M211.912 169.66C211.322 171.739 208.911 172.623 207.155 171.541L145.842 131.312C144.118 130.181 143.937 127.666 145.528 126.315L151.291 121.29C152.329 120.351 153.88 120.242 155.062 121.017L155.604 121.373L180.711 83.1076C179.547 80.3715 181.383 76.7149 184.946 76.8685L222.073 78.2628C223.74 78.2996 225.217 79.269 225.914 80.7832L241.925 114.254C243.484 117.461 240.86 120.601 237.838 120.59L212.763 158.806L212.615 158.709C213.748 159.453 214.298 160.87 213.931 162.179L211.912 169.66Z" fill="#E84341"/>
<path d="M243.846 48.7294C203.05 21.9615 148.274 33.3347 121.506 74.1311C94.7385 114.928 106.112 169.703 146.908 196.471C187.704 223.239 242.48 211.866 269.248 171.069C296.016 130.273 284.643 75.4974 243.846 48.7294ZM131.356 80.5937C154.556 45.2342 202.024 35.3783 237.384 58.5789C272.743 81.7795 282.599 129.247 259.399 164.607C236.198 199.966 188.73 209.822 153.371 186.622C118.011 163.421 108.155 115.953 131.356 80.5937Z" fill="#E84341"/>
<g filter="url(#filter1_d_8079_5)">
<path d="M197.105 85.6417C198.34 87.5052 198.872 89.7958 198.605 92.103C198.337 94.4103 197.288 96.5833 195.645 98.2329C195.187 98.6803 194.884 99.2693 194.786 99.9017C194.688 100.534 194.802 101.172 195.107 101.708L211.699 130.887C212.003 131.424 212.482 131.828 213.055 132.031C213.628 132.233 214.26 132.223 214.846 132.002C216.301 131.478 217.839 131.321 219.33 131.542C220.821 131.764 222.221 132.359 223.409 133.277C224.597 134.194 225.539 135.406 226.154 136.81C226.769 138.214 227.039 139.767 226.941 141.338C226.843 142.909 226.379 144.45 225.59 145.83C224.801 147.21 223.709 148.388 222.409 149.263C221.108 150.138 219.637 150.685 218.122 150.856C216.606 151.027 215.09 150.818 213.705 150.246C213.535 151.814 213.003 153.334 212.154 154.678C211.305 156.021 210.164 157.147 208.828 157.96C207.492 158.774 206.001 159.249 204.483 159.347C202.965 159.445 201.464 159.162 200.109 158.522C198.753 157.882 197.584 156.904 196.7 155.673C195.817 154.441 195.245 152.991 195.035 151.448C194.824 149.905 194.98 148.314 195.49 146.81C196 145.307 196.849 143.936 197.963 142.814C198.421 142.367 198.724 141.778 198.822 141.145C198.92 140.513 198.807 139.876 198.501 139.339L181.91 110.16C181.605 109.623 181.126 109.219 180.554 109.016C179.981 108.814 179.349 108.824 178.762 109.045C177.308 109.569 175.769 109.727 174.278 109.505C172.787 109.283 171.388 108.688 170.199 107.77C169.011 106.853 168.069 105.641 167.454 104.237C166.839 102.833 166.569 101.28 166.668 99.7092C166.766 98.1385 167.229 96.5973 168.019 95.2173C168.808 93.8372 169.899 92.6593 171.2 91.784C172.5 90.9088 173.971 90.3622 175.487 90.191C177.003 90.0198 178.518 90.229 179.904 90.8008C180.116 88.8039 180.916 86.8935 182.194 85.3295C183.472 83.7655 185.166 82.6239 187.046 82.0601C188.925 81.4963 190.9 81.5376 192.699 82.1785C194.499 82.8193 196.037 84.0286 197.105 85.6417Z" fill="white"/>
<path d="M184.215 80.285C181.355 81.772 179.116 84.3301 177.977 87.4131C176.183 87.2098 174.349 87.4296 172.609 88.0562C170.87 88.6828 169.27 89.7002 167.929 91.0328C166.587 92.3655 165.539 93.9793 164.861 95.7544C164.184 97.5296 163.894 99.4205 164.014 101.287C164.134 103.154 164.661 104.948 165.555 106.537C166.449 108.125 167.687 109.468 169.178 110.465C170.669 111.462 172.374 112.087 174.167 112.295C175.961 112.503 177.796 112.287 179.537 111.665C179.545 111.665 179.554 111.667 179.562 111.671L196.154 140.825L196.145 140.859C194.815 142.204 193.78 143.826 193.117 145.607C192.454 147.387 192.181 149.28 192.317 151.144C192.453 153.009 192.995 154.798 193.903 156.377C194.811 157.957 196.061 159.288 197.561 160.271C199.061 161.253 200.772 161.863 202.568 162.054C204.364 162.245 206.198 162.013 207.934 161.375C209.67 160.737 211.264 159.709 212.597 158.368C213.93 157.027 214.969 155.407 215.635 153.627C217.429 153.831 219.264 153.611 221.003 152.984C222.743 152.358 224.343 151.34 225.684 150.008C227.025 148.675 228.074 147.061 228.751 145.286C229.429 143.511 229.718 141.62 229.598 139.754C229.478 137.887 228.952 136.093 228.058 134.504C227.164 132.915 225.926 131.573 224.435 130.576C222.944 129.579 221.238 128.953 219.445 128.746C217.652 128.538 215.817 128.753 214.076 129.376C214.067 129.374 214.059 129.372 214.05 129.37L197.462 100.202L197.471 100.168C199.597 98.0456 200.957 95.243 201.303 92.2657C201.65 89.2884 200.962 86.3324 199.362 83.931C197.763 81.5297 195.358 79.8411 192.581 79.1701C189.804 78.499 186.838 78.8896 184.219 80.2714L184.215 80.285ZM194.862 87.2778C195.747 88.6089 196.128 90.2459 195.938 91.8951C195.747 93.5444 194.998 95.0979 193.823 96.277C192.92 97.1725 192.324 98.3451 192.134 99.6016C191.943 100.858 192.169 102.124 192.775 103.19L209.371 132.378C209.98 133.441 210.931 134.241 212.068 134.645C213.205 135.05 214.46 135.034 215.626 134.602C216.665 134.23 217.763 134.119 218.827 134.279C219.891 134.439 220.889 134.864 221.737 135.52C222.584 136.176 223.256 137.042 223.694 138.044C224.132 139.046 224.324 140.155 224.254 141.276C224.183 142.397 223.852 143.497 223.289 144.482C222.726 145.467 221.947 146.308 221.019 146.933C220.091 147.558 219.041 147.949 217.96 148.072C216.878 148.195 215.796 148.047 214.806 147.64C214.452 147.493 214.067 147.43 213.679 147.453C213.29 147.476 212.907 147.586 212.556 147.776C212.205 147.965 211.894 148.229 211.644 148.549C211.395 148.869 211.213 149.238 211.111 149.631C211.076 149.771 211.05 149.913 211.034 150.056C210.911 151.173 210.531 152.257 209.924 153.213C209.318 154.17 208.503 154.973 207.551 155.552C206.598 156.132 205.536 156.471 204.453 156.541C203.371 156.612 202.301 156.411 201.334 155.957C200.367 155.502 199.532 154.807 198.9 153.93C198.268 153.054 197.857 152.022 197.703 150.923C197.55 149.823 197.657 148.688 198.016 147.615C198.375 146.542 198.976 145.562 199.767 144.758C200.67 143.863 201.266 142.69 201.456 141.434C201.647 140.177 201.421 138.912 200.815 137.846L184.219 108.658C183.61 107.597 182.661 106.8 181.527 106.397C180.393 105.993 179.141 106.007 177.977 106.437C176.938 106.809 175.84 106.92 174.776 106.76C173.712 106.6 172.714 106.174 171.866 105.518C171.019 104.863 170.347 103.997 169.909 102.994C169.471 101.992 169.278 100.883 169.349 99.7622C169.419 98.6411 169.75 97.5411 170.314 96.556C170.877 95.571 171.656 94.7301 172.584 94.105C173.512 93.4798 174.561 93.0891 175.643 92.9661C176.725 92.843 177.807 92.9913 178.796 93.3983C179.183 93.5579 179.605 93.619 180.028 93.5764C180.45 93.5339 180.862 93.389 181.23 93.1536C181.598 92.9181 181.911 92.5988 182.143 92.2216C182.376 91.8443 182.521 91.4198 182.568 90.9827C182.715 89.5508 183.284 88.1793 184.199 87.0564C185.113 85.9334 186.327 85.1138 187.675 84.71C189.022 84.3062 190.438 84.3378 191.727 84.8006C193.016 85.2634 194.115 86.1347 194.875 87.2951L194.862 87.2778Z" fill="#CE3346"/>
</g>
<g filter="url(#filter2_d_8079_5)">
<path d="M238.164 113.754C235.997 115.713 233.235 116.897 230.374 117.092C227.512 117.288 224.739 116.483 222.549 114.821C221.954 114.355 221.201 114.114 220.414 114.137C219.627 114.16 218.855 114.446 218.227 114.948L184.017 142.209C183.387 142.709 182.939 143.396 182.746 144.153C182.554 144.91 182.629 145.692 182.959 146.37C183.746 148.055 184.092 149.928 183.967 151.829C183.842 153.73 183.249 155.603 182.24 157.287C181.231 158.971 179.834 160.417 178.171 161.502C176.507 162.586 174.625 163.276 172.685 163.513C170.746 163.75 168.806 163.527 167.032 162.863C165.259 162.199 163.703 161.114 162.499 159.7C161.295 158.287 160.478 156.586 160.118 154.744C159.757 152.903 159.864 150.974 160.43 149.124C158.487 149.272 156.566 148.959 154.832 148.213C153.097 147.466 151.6 146.307 150.469 144.835C149.338 143.363 148.606 141.622 148.336 139.76C148.065 137.898 148.265 135.971 148.917 134.143C149.569 132.315 150.654 130.641 152.08 129.263C153.506 127.884 155.23 126.844 157.106 126.229C158.981 125.615 160.952 125.445 162.849 125.734C164.747 126.024 166.515 126.763 168.004 127.89C168.599 128.356 169.352 128.598 170.139 128.574C170.926 128.551 171.698 128.265 172.326 127.763L206.536 100.503C207.165 100.002 207.614 99.3156 207.806 98.5584C207.999 97.8012 207.924 97.0188 207.594 96.3417C206.807 94.6566 206.461 92.7835 206.586 90.8824C206.711 88.9812 207.303 87.1086 208.313 85.4242C209.322 83.7398 210.718 82.2939 212.382 81.2097C214.046 80.1256 215.928 79.4355 217.868 79.1984C219.807 78.9613 221.747 79.1842 223.52 79.8481C225.294 80.512 226.849 81.5971 228.054 83.0109C229.258 84.4246 230.075 86.125 230.435 87.9668C230.795 89.8086 230.688 91.7371 230.123 93.5876C232.597 93.3948 235.024 93.9503 237.072 95.1786C239.12 96.4069 240.69 98.2483 241.569 100.452C242.448 102.656 242.592 105.115 241.983 107.495C241.374 109.876 240.04 112.061 238.164 113.754Z" fill="white"/>
<path d="M243.471 96.5345C241.361 93.3248 237.996 91.1316 234.095 90.4231C234.168 88.1505 233.716 85.9238 232.774 83.9083C231.832 81.8928 230.424 80.1402 228.653 78.7804C226.883 77.4207 224.797 76.4887 222.549 76.0536C220.301 75.6186 217.949 75.6916 215.667 76.2672C213.386 76.8429 211.233 77.9064 209.37 79.3789C207.506 80.8514 205.979 82.6952 204.902 84.7733C203.824 86.8515 203.225 89.1108 203.147 91.3836C203.069 93.6564 203.515 95.8844 204.453 97.9024C204.453 97.9136 204.451 97.925 204.448 97.936L170.269 125.191L170.226 125.187C168.443 123.844 166.347 122.93 164.094 122.515C161.84 122.1 159.488 122.193 157.21 122.788C154.933 123.383 152.789 124.465 150.938 125.953C149.086 127.44 147.575 129.296 146.516 131.382C145.457 133.469 144.878 135.732 144.82 138.004C144.763 140.276 145.23 142.499 146.186 144.507C147.141 146.516 148.562 148.259 150.342 149.607C152.122 150.955 154.215 151.873 156.467 152.294C156.395 154.566 156.846 156.793 157.788 158.808C158.731 160.824 160.139 162.576 161.909 163.936C163.679 165.296 165.766 166.228 168.014 166.663C170.262 167.098 172.614 167.025 174.895 166.449C177.177 165.874 179.329 164.81 181.193 163.338C183.056 161.865 184.584 160.021 185.661 157.943C186.738 155.865 187.338 153.606 187.415 151.333C187.493 149.06 187.047 146.832 186.11 144.814C186.111 144.803 186.112 144.792 186.115 144.781L220.311 117.527L220.353 117.53C223.171 119.684 226.749 120.73 230.441 120.48C234.134 120.229 237.698 118.699 240.49 116.165C243.282 113.631 245.119 110.261 245.668 106.661C246.218 103.062 245.445 99.4706 243.488 96.5358L243.471 96.5345ZM235.933 111.346C234.385 112.748 232.411 113.596 230.366 113.736C228.321 113.877 226.338 113.302 224.773 112.114C223.583 111.198 222.083 110.727 220.521 110.777C218.958 110.828 217.426 111.398 216.176 112.393L181.956 139.662C180.709 140.66 179.821 142.023 179.437 143.526C179.052 145.03 179.196 146.584 179.842 147.932C180.402 149.136 180.647 150.474 180.556 151.831C180.465 153.188 180.04 154.524 179.319 155.725C178.597 156.927 177.6 157.958 176.412 158.731C175.224 159.505 173.88 159.997 172.496 160.165C171.111 160.334 169.727 160.175 168.461 159.701C167.195 159.227 166.085 158.453 165.225 157.444C164.365 156.436 163.781 155.222 163.523 153.908C163.264 152.594 163.34 151.217 163.742 149.896C163.887 149.423 163.927 148.931 163.86 148.454C163.793 147.977 163.619 147.527 163.352 147.134C163.085 146.742 162.73 146.416 162.312 146.18C161.894 145.943 161.422 145.802 160.93 145.765C160.755 145.753 160.578 145.754 160.4 145.767C159.015 145.87 157.646 145.645 156.411 145.111C155.175 144.578 154.108 143.751 153.302 142.701C152.496 141.652 151.974 140.41 151.78 139.083C151.587 137.756 151.727 136.382 152.19 135.078C152.653 133.774 153.424 132.579 154.439 131.595C155.453 130.61 156.68 129.865 158.016 129.422C159.352 128.98 160.756 128.853 162.11 129.054C163.465 129.254 164.728 129.776 165.794 130.573C166.984 131.489 168.483 131.961 170.046 131.91C171.609 131.859 173.141 131.289 174.391 130.294L208.611 103.026C209.853 102.028 210.739 100.668 211.122 99.1683C211.506 97.6687 211.365 96.1184 210.722 94.7716C210.162 93.5677 209.917 92.2303 210.008 90.8734C210.099 89.5164 210.524 88.1802 211.245 86.9786C211.967 85.777 212.965 84.7456 214.153 83.9726C215.341 83.1995 216.684 82.7075 218.069 82.5387C219.453 82.3699 220.837 82.5291 222.103 83.0029C223.369 83.4767 224.48 84.251 225.34 85.2597C226.199 86.2684 226.783 87.4817 227.042 88.796C227.3 90.1104 227.225 91.4868 226.823 92.808C226.665 93.3239 226.631 93.8613 226.726 94.3764C226.82 94.8915 227.038 95.3697 227.364 95.7721C227.69 96.1745 228.113 96.4897 228.6 96.6921C229.086 96.8945 229.622 96.9783 230.164 96.9367C231.938 96.7913 233.679 97.1843 235.149 98.062C236.619 98.9397 237.747 100.259 238.376 101.839C239.006 103.419 239.107 105.183 238.666 106.889C238.225 108.594 237.263 110.158 235.912 111.366L235.933 111.346Z" fill="#CE3346"/>
</g>
</g>
<g filter="url(#filter3_d_8079_5)">
<circle cx="93.2862" cy="96.3376" r="67.0761" transform="rotate(18.0304 93.2862 96.3376)" fill="white"/>
<path d="M76.3807 148.272C104.72 157.497 135.174 142 144.399 113.66C153.623 85.3208 138.127 54.8673 109.787 45.6425C81.4476 36.4177 50.9941 51.9142 41.7694 80.2539C32.5446 108.594 48.041 139.047 76.3807 148.272ZM116.674 131.154C116.656 132.954 114.912 134.192 113.264 133.707L55.1848 114.802C53.5521 114.271 52.8555 112.29 53.8382 110.856L57.3691 105.556C57.9982 104.574 59.2208 104.147 60.3404 104.511L60.8536 104.678L72.6522 68.4312C71.1181 66.4873 71.7926 63.147 74.6891 62.4905L104.83 55.4825C106.178 55.1471 107.577 55.6027 108.469 56.6669L128.663 80.0593C130.618 82.295 129.197 85.3924 126.766 86.0456L114.982 122.246L114.842 122.2C115.915 122.55 116.667 123.568 116.66 124.701L116.674 131.154Z" fill="#E84341"/>
<path d="M116.674 131.154C116.656 132.954 114.912 134.192 113.264 133.707L55.1848 114.802C53.5521 114.271 52.8555 112.29 53.8382 110.856L57.3691 105.556C57.9982 104.574 59.2208 104.147 60.3404 104.511L60.8536 104.678L72.6522 68.4312C71.1181 66.4873 71.7926 63.147 74.6891 62.4905L104.83 55.4825C106.178 55.1471 107.577 55.6027 108.469 56.6669L128.663 80.0593C130.618 82.295 129.197 85.3924 126.766 86.0456L114.982 122.246L114.842 122.2C115.915 122.55 116.667 123.568 116.66 124.701L116.674 131.154Z" fill="#E84341"/>
<path d="M115.861 26.9823C77.2167 14.4032 35.6886 35.535 23.1095 74.1796C10.5304 112.824 31.6622 154.352 70.3068 166.931C108.951 179.511 150.48 158.379 163.059 119.734C175.638 81.0895 154.506 39.5614 115.861 26.9823ZM32.4394 77.2166C43.3421 43.7221 79.3298 25.4095 112.824 36.3122C146.319 47.2149 164.631 83.2026 153.729 116.697C142.826 150.192 106.838 168.504 73.3438 157.601C39.8493 146.699 21.5367 110.711 32.4394 77.2166Z" fill="#E84341"/>
<g filter="url(#filter4_d_8079_5)">
<path d="M86.381 66.8788C87.782 68.1058 88.7108 69.8301 89.001 71.7428C89.2912 73.6554 88.9239 75.6314 87.9647 77.3167C87.6948 77.7765 87.5801 78.3161 87.6399 78.8457C87.6997 79.3753 87.9304 79.8628 88.2933 80.2268L108.015 100.043C108.377 100.408 108.85 100.627 109.355 100.665C109.859 100.703 110.365 100.556 110.788 100.25C111.842 99.5106 113.044 99.047 114.291 98.8989C115.538 98.7508 116.793 98.9226 117.948 99.3996C119.104 99.8765 120.126 100.644 120.928 101.638C121.729 102.631 122.286 103.821 122.551 105.104C122.816 106.388 122.781 107.728 122.449 109.01C122.117 110.292 121.498 111.477 120.644 112.465C119.791 113.453 118.729 114.215 117.548 114.684C116.368 115.153 115.104 115.317 113.865 115.161C114.072 116.458 113.978 117.796 113.589 119.062C113.201 120.327 112.53 121.482 111.635 122.428C110.739 123.374 109.646 124.082 108.447 124.493C107.248 124.904 105.98 125.005 104.751 124.788C103.522 124.57 102.368 124.041 101.388 123.244C100.409 122.448 99.6321 121.408 99.1248 120.214C98.6176 119.02 98.3948 117.707 98.4755 116.387C98.5562 115.068 98.9379 113.78 99.5882 112.635C99.8581 112.175 99.9728 111.635 99.913 111.106C99.8532 110.576 99.6225 110.089 99.2596 109.725L79.5381 89.9083C79.1758 89.5435 78.7028 89.324 78.1981 89.2864C77.6934 89.2488 77.1875 89.3953 76.7647 89.7015C75.7106 90.441 74.5089 90.9045 73.262 91.0526C72.0152 91.2007 70.7604 91.0289 69.6046 90.552C68.4489 90.075 67.4266 89.3071 66.625 88.3137C65.8235 87.3203 65.2665 86.1309 65.0016 84.8472C64.7367 83.5635 64.7718 82.2235 65.1038 80.9417C65.4359 79.6599 66.0551 78.4743 66.9085 77.4862C67.762 76.4982 68.8243 75.7369 70.0048 75.2675C71.1854 74.7981 72.449 74.6344 73.6879 74.7905C73.4215 73.1393 73.6458 71.429 74.3303 69.8924C75.0148 68.3558 76.1263 67.0675 77.5135 66.2028C78.9007 65.3382 80.4962 64.9392 82.0828 65.0602C83.6695 65.1811 85.1703 65.8161 86.381 66.8788Z" fill="white"/>
<path d="M74.8503 65.396C72.8773 67.2172 71.6383 69.763 71.3981 72.4899C69.9121 72.7192 68.4857 73.2975 67.225 74.1819C65.9643 75.0663 64.9015 76.2341 64.1154 77.5987C63.3294 78.9633 62.8403 80.4896 62.6844 82.0645C62.5285 83.6393 62.7098 85.2223 63.2149 86.696C63.72 88.1697 64.5359 89.4963 65.6021 90.5774C66.6682 91.6584 67.9573 92.4662 69.3738 92.9409C70.7902 93.4155 72.2975 93.5448 73.784 93.3191C75.2705 93.0934 76.698 92.5186 77.9606 91.6372C77.968 91.6357 77.9755 91.6354 77.9828 91.6364L97.6986 111.433L97.6989 111.462C96.9242 112.833 96.4478 114.364 96.305 115.94C96.1623 117.516 96.3569 119.097 96.8744 120.565C97.392 122.034 98.2191 123.353 99.2945 124.423C100.37 125.494 101.666 126.29 103.087 126.751C104.507 127.212 106.016 127.328 107.501 127.088C108.986 126.849 110.409 126.261 111.664 125.368C112.92 124.475 113.975 123.3 114.753 121.93C115.531 120.56 116.011 119.031 116.157 117.455C117.643 117.226 119.069 116.648 120.33 115.763C121.591 114.879 122.654 113.711 123.44 112.347C124.226 110.982 124.715 109.456 124.871 107.881C125.027 106.306 124.845 104.723 124.34 103.249C123.835 101.776 123.019 100.449 121.953 99.3679C120.887 98.2868 119.598 97.479 118.181 97.0044C116.765 96.5298 115.258 96.4005 113.771 96.6262C112.284 96.8518 110.857 97.4267 109.594 98.308C109.587 98.3089 109.58 98.3092 109.572 98.3089L89.8563 78.5009L89.856 78.4717C91.1001 76.3008 91.5787 73.7511 91.2055 71.2825C90.8323 68.814 89.6319 66.5893 87.8208 65.0097C86.0097 63.4302 83.7073 62.5998 81.3288 62.6685C78.9504 62.7372 76.6527 63.7004 74.8502 65.3843L74.8503 65.396ZM84.9374 68.6844C85.9396 69.5604 86.6044 70.7924 86.8125 72.1595C87.0205 73.5265 86.7583 74.939 86.0727 76.1436C85.543 77.061 85.3209 78.1338 85.4428 79.1852C85.5647 80.2367 86.0234 81.2042 86.7433 81.9284L106.47 101.751C107.193 102.472 108.132 102.906 109.134 102.982C110.136 103.058 111.141 102.771 111.984 102.168C112.737 101.642 113.595 101.312 114.485 101.208C115.376 101.103 116.271 101.227 117.096 101.568C117.92 101.91 118.649 102.459 119.221 103.168C119.793 103.877 120.19 104.727 120.379 105.643C120.568 106.559 120.542 107.516 120.305 108.431C120.068 109.345 119.627 110.192 119.018 110.897C118.409 111.603 117.651 112.147 116.809 112.482C115.966 112.818 115.064 112.936 114.18 112.825C113.863 112.785 113.54 112.818 113.233 112.922C112.926 113.026 112.642 113.198 112.401 113.427C112.16 113.656 111.968 113.936 111.838 114.248C111.707 114.56 111.642 114.896 111.646 115.234C111.648 115.354 111.659 115.474 111.678 115.592C111.823 116.517 111.755 117.471 111.477 118.373C111.199 119.275 110.72 120.098 110.082 120.772C109.443 121.446 108.663 121.952 107.809 122.245C106.955 122.539 106.051 122.612 105.174 122.458C104.298 122.305 103.474 121.929 102.775 121.363C102.075 120.797 101.519 120.058 101.155 119.208C100.79 118.358 100.628 117.423 100.682 116.481C100.735 115.54 101.003 114.621 101.463 113.802C101.993 112.885 102.215 111.812 102.093 110.761C101.971 109.709 101.512 108.742 100.792 108.018L81.0651 88.1955C80.3439 87.4768 79.4066 87.044 78.4069 86.968C77.4072 86.8921 76.4044 87.1774 75.5626 87.7773C74.8095 88.3038 73.9513 88.6333 73.0612 88.7377C72.1712 88.8421 71.2757 88.7184 70.4511 88.3771C69.6265 88.0358 68.8973 87.487 68.3256 86.7776C67.7539 86.0681 67.3568 85.219 67.168 84.3027C66.9792 83.3863 67.0043 82.4299 67.2413 81.515C67.4783 80.6001 67.92 79.7538 68.5289 79.0483C69.1378 78.3428 69.8958 77.799 70.7382 77.4633C71.5806 77.1275 72.4824 77.0098 73.3668 77.1202C73.7122 77.1639 74.0645 77.1206 74.3951 76.9939C74.7256 76.8671 75.025 76.6605 75.2689 76.3908C75.5128 76.1211 75.6942 75.796 75.7985 75.4419C75.9028 75.0878 75.927 74.7148 75.8691 74.3532C75.6734 73.1704 75.8308 71.9437 76.3195 70.8411C76.8082 69.7386 77.6045 68.8142 78.5991 68.1946C79.5937 67.575 80.738 67.2905 81.8753 67.3802C83.0125 67.4699 84.0869 67.9293 84.9514 68.6955L84.9374 68.6844Z" fill="#CE3346"/>
</g>
<g filter="url(#filter5_d_8079_5)">
<path d="M125.531 80.48C124.218 82.5292 122.258 84.085 120.002 84.8686C117.745 85.6522 115.34 85.6124 113.217 84.7563C112.636 84.5122 111.978 84.4832 111.351 84.674C110.724 84.8648 110.166 85.2639 109.771 85.8048L88.2479 115.201C87.8516 115.741 87.6415 116.391 87.6525 117.042C87.6636 117.692 87.8951 118.305 88.3084 118.777C89.3103 119.958 89.9984 121.388 90.3141 122.943C90.6298 124.498 90.5636 126.133 90.1212 127.707C89.6788 129.282 88.8734 130.749 87.7736 131.985C86.6739 133.22 85.3126 134.187 83.8058 134.802C82.2991 135.417 80.6918 135.663 79.1211 135.518C77.5503 135.373 76.0629 134.841 74.7858 133.969C73.5086 133.096 72.4797 131.909 71.7869 130.507C71.0941 129.106 70.758 127.533 70.8072 125.922C69.2783 126.467 67.6663 126.636 66.1089 126.416C64.5516 126.195 63.0951 125.592 61.8638 124.657C60.6326 123.722 59.6631 122.483 59.0382 121.046C58.4133 119.609 58.1516 118.016 58.2754 116.404C58.3991 114.793 58.9047 113.209 59.7489 111.79C60.5931 110.37 61.7509 109.156 63.1234 108.252C64.4959 107.348 66.0424 106.78 67.6307 106.597C69.2191 106.414 70.8021 106.621 72.2447 107.201C72.8248 107.445 73.4834 107.474 74.1105 107.283C74.7376 107.092 75.2953 106.693 75.6906 106.152L97.2134 76.7557C97.6097 76.2155 97.8198 75.5659 97.8088 74.9152C97.7978 74.2646 97.5662 73.6523 97.1529 73.1804C96.151 71.9987 95.4629 70.5692 95.1472 69.014C94.8315 67.4589 94.8977 65.8242 95.3401 64.2497C95.7825 62.6751 96.5879 61.2075 97.6877 59.972C98.7874 58.7365 100.149 57.7699 101.655 57.1547C103.162 56.5395 104.77 56.294 106.34 56.4392C107.911 56.5844 109.398 57.1159 110.676 57.9884C111.953 58.8609 112.982 60.0484 113.674 61.4496C114.367 62.8508 114.703 64.4239 114.654 66.0348C116.6 65.3381 118.672 65.2534 120.587 65.792C122.501 66.3307 124.166 67.4667 125.355 69.0453C126.544 70.624 127.198 72.5686 127.23 74.6147C127.261 76.6607 126.668 78.7087 125.531 80.48Z" fill="white"/>
<path d="M126.026 65.4806C123.627 63.3633 120.443 62.3374 117.154 62.6221C116.714 60.7799 115.864 59.0894 114.665 57.676C113.467 56.2626 111.952 55.1625 110.231 54.4573C108.511 53.7522 106.631 53.46 104.729 53.6026C102.827 53.7452 100.953 54.3188 99.2454 55.2808C97.538 56.2429 96.0412 57.5688 94.8659 59.1602C93.6907 60.7515 92.8672 62.5675 92.4565 64.4733C92.0459 66.3792 92.0585 68.3261 92.4937 70.1695C92.9288 72.013 93.7752 73.7058 94.97 75.1222C94.9727 75.1312 94.9738 75.1407 94.9735 75.1503L73.4741 104.535L73.4391 104.542C71.7119 103.853 69.8275 103.578 67.9259 103.737C66.0242 103.897 64.1541 104.487 62.4542 105.464C60.7543 106.44 59.2682 107.779 58.1063 109.38C56.9443 110.981 56.1362 112.803 55.7419 114.711C55.3477 116.62 55.3774 118.565 55.8289 120.404C56.2803 122.242 57.142 123.926 58.3498 125.331C59.5577 126.736 61.0808 127.825 62.8063 128.519C64.5317 129.212 66.4151 129.492 68.3168 129.337C68.7562 131.179 69.6066 132.869 70.8049 134.283C72.0032 135.696 73.5187 136.796 75.2389 137.502C76.959 138.207 78.8398 138.499 80.7416 138.356C82.6435 138.214 84.5176 137.64 86.225 136.678C87.9324 135.716 89.4292 134.39 90.6044 132.799C91.7797 131.207 92.6032 129.391 93.0138 127.486C93.4245 125.58 93.4118 123.633 92.9767 121.789C92.5416 119.946 91.6952 118.253 90.5003 116.837C90.4985 116.827 90.4973 116.818 90.4969 116.809L112.01 87.421L112.045 87.4143C114.781 88.5279 117.885 88.5851 120.798 87.5756C123.71 86.566 126.239 84.5561 127.928 81.9085C129.617 79.261 130.355 76.1501 130.009 73.1372C129.663 70.1244 128.255 67.4079 126.04 65.4779L126.026 65.4806ZM123.211 79.0336C122.274 80.4992 120.873 81.6122 119.261 82.1731C117.648 82.734 115.928 82.7059 114.411 82.094C113.254 81.6184 111.946 81.5679 110.701 81.9508C109.457 82.3336 108.35 83.127 107.563 84.2003L86.034 113.605C85.2509 114.681 84.8353 115.971 84.8557 117.263C84.8762 118.555 85.3314 119.772 86.1465 120.715C86.8601 121.559 87.3496 122.581 87.5734 123.691C87.7972 124.801 87.7486 125.968 87.4318 127.092C87.1149 128.215 86.5392 129.263 85.7537 130.144C84.9683 131.025 83.9963 131.715 82.9207 132.154C81.8452 132.592 80.6979 132.767 79.5768 132.664C78.4557 132.56 77.3939 132.181 76.4821 131.559C75.5702 130.936 74.8353 130.089 74.3401 129.09C73.8448 128.09 73.6038 126.967 73.6377 125.818C73.6507 125.405 73.5754 125.001 73.417 124.633C73.2586 124.264 73.0209 123.941 72.7202 123.684C72.4195 123.427 72.063 123.243 71.6753 123.144C71.2875 123.046 70.8777 123.035 70.474 123.113C70.3303 123.142 70.1882 123.182 70.0488 123.231C68.9581 123.617 67.8089 123.736 66.6989 123.578C65.5889 123.419 64.551 122.988 63.6734 122.321C62.7958 121.654 62.1045 120.771 61.6583 119.747C61.2121 118.723 61.0243 117.588 61.1108 116.439C61.1972 115.29 61.5555 114.161 62.155 113.147C62.7544 112.134 63.5775 111.266 64.554 110.618C65.5305 109.97 66.6317 109.561 67.7638 109.426C68.8959 109.29 70.0255 109.433 71.0564 109.84C72.213 110.316 73.5214 110.366 74.766 109.984C76.0107 109.601 77.1175 108.807 77.9042 107.734L99.4333 78.329C100.213 77.2552 100.627 75.9684 100.607 74.6793C100.587 73.3902 100.134 72.1754 99.3226 71.2338C98.609 70.3889 98.1194 69.3678 97.8956 68.2574C97.6718 67.1469 97.7204 65.9802 98.0373 64.8566C98.3541 63.733 98.9298 62.6858 99.7153 61.8045C100.501 60.9231 101.473 60.2336 102.548 59.7949C103.624 59.3561 104.771 59.181 105.892 59.2846C107.013 59.3882 108.075 59.7673 108.987 60.3896C109.899 61.012 110.634 61.8591 111.129 62.8588C111.624 63.8585 111.865 64.9811 111.831 66.1308C111.817 66.58 111.908 67.0191 112.097 67.4124C112.285 67.8057 112.566 68.1421 112.915 68.3942C113.265 68.6463 113.674 68.8069 114.11 68.863C114.545 68.9191 114.994 68.8691 115.42 68.7171C116.814 68.2119 118.299 68.1465 119.673 68.53C121.047 68.9134 122.241 69.7268 123.093 70.8588C123.945 71.9908 124.412 73.386 124.431 74.8531C124.45 76.3202 124.02 77.7875 123.199 79.0538L123.211 79.0336Z" fill="#CE3346"/>
</g>
</g>
<defs>
<filter id="filter0_d_8079_5" x="107.016" y="34.2385" width="184.724" height="189.724" filterUnits="userSpaceOnUse" color-interpolation-filters="sRGB">
<feFlood flood-opacity="0" result="BackgroundImageFix"/>
<feColorMatrix in="SourceAlpha" type="matrix" values="0 0 0 0 0 0 0 0 0 0 0 0 0 0 0 0 0 0 127 0" result="hardAlpha"/>
<feOffset dx="8" dy="13"/>
<feComposite in2="hardAlpha" operator="out"/>
<feColorMatrix type="matrix" values="0 0 0 0 0 0 0 0 0 0 0 0 0 0 0 0 0 0 1 0"/>
<feBlend mode="normal" in2="BackgroundImageFix" result="effect1_dropShadow_8079_5"/>
<feBlend mode="normal" in="SourceGraphic" in2="effect1_dropShadow_8079_5" result="shape"/>
</filter>
<filter id="filter1_d_8079_5" x="163.988" y="78.8496" width="65.6367" height="86.7638" filterUnits="userSpaceOnUse" color-interpolation-filters="sRGB">
<feFlood flood-opacity="0" result="BackgroundImageFix"/>
<feColorMatrix in="SourceAlpha" type="matrix" values="0 0 0 0 0 0 0 0 0 0 0 0 0 0 0 0 0 0 127 0" result="hardAlpha"/>
<feOffset dy="3.49426"/>
<feComposite in2="hardAlpha" operator="out"/>
<feColorMatrix type="matrix" values="0 0 0 0 0.886275 0 0 0 0 0.129412 0 0 0 0 0.223529 0 0 0 1 0"/>
<feBlend mode="normal" in2="BackgroundImageFix" result="effect1_dropShadow_8079_5"/>
<feBlend mode="normal" in="SourceGraphic" in2="effect1_dropShadow_8079_5" result="shape"/>
</filter>
<filter id="filter2_d_8079_5" x="144.815" y="75.7737" width="101.025" height="95.5671" filterUnits="userSpaceOnUse" color-interpolation-filters="sRGB">
<feFlood flood-opacity="0" result="BackgroundImageFix"/>
<feColorMatrix in="SourceAlpha" type="matrix" values="0 0 0 0 0 0 0 0 0 0 0 0 0 0 0 0 0 0 127 0" result="hardAlpha"/>
<feOffset dy="4.39793"/>
<feComposite in2="hardAlpha" operator="out"/>
<feColorMatrix type="matrix" values="0 0 0 0 0.886275 0 0 0 0 0.129412 0 0 0 0 0.223529 0 0 0 1 0"/>
<feBlend mode="normal" in2="BackgroundImageFix" result="effect1_dropShadow_8079_5"/>
<feBlend mode="normal" in="SourceGraphic" in2="effect1_dropShadow_8079_5" result="shape"/>
</filter>
<filter id="filter3_d_8079_5" x="19.4761" y="23.3489" width="152.879" height="156.418" filterUnits="userSpaceOnUse" color-interpolation-filters="sRGB">
<feFlood flood-opacity="0" result="BackgroundImageFix"/>
<feColorMatrix in="SourceAlpha" type="matrix" values="0 0 0 0 0 0 0 0 0 0 0 0 0 0 0 0 0 0 127 0" result="hardAlpha"/>
<feOffset dx="5.66303" dy="9.20243"/>
<feComposite in2="hardAlpha" operator="out"/>
<feColorMatrix type="matrix" values="0 0 0 0 0 0 0 0 0 0 0 0 0 0 0 0 0 0 1 0"/>
<feBlend mode="normal" in2="BackgroundImageFix" result="effect1_dropShadow_8079_5"/>
<feBlend mode="normal" in="SourceGraphic" in2="effect1_dropShadow_8079_5" result="shape"/>
</filter>
<filter id="filter4_d_8079_5" x="62.6304" y="62.6646" width="62.2944" height="67.0187" filterUnits="userSpaceOnUse" color-interpolation-filters="sRGB">
<feFlood flood-opacity="0" result="BackgroundImageFix"/>
<feColorMatrix in="SourceAlpha" type="matrix" values="0 0 0 0 0 0 0 0 0 0 0 0 0 0 0 0 0 0 127 0" result="hardAlpha"/>
<feOffset dy="2.47352"/>
<feComposite in2="hardAlpha" operator="out"/>
<feColorMatrix type="matrix" values="0 0 0 0 0.886275 0 0 0 0 0.129412 0 0 0 0 0.223529 0 0 0 1 0"/>
<feBlend mode="normal" in2="BackgroundImageFix" result="effect1_dropShadow_8079_5"/>
<feBlend mode="normal" in="SourceGraphic" in2="effect1_dropShadow_8079_5" result="shape"/>
</filter>
<filter id="filter5_d_8079_5" x="55.4668" y="53.5674" width="74.6255" height="87.9372" filterUnits="userSpaceOnUse" color-interpolation-filters="sRGB">
<feFlood flood-opacity="0" result="BackgroundImageFix"/>
<feColorMatrix in="SourceAlpha" type="matrix" values="0 0 0 0 0 0 0 0 0 0 0 0 0 0 0 0 0 0 127 0" result="hardAlpha"/>
<feOffset dy="3.1132"/>
<feComposite in2="hardAlpha" operator="out"/>
<feColorMatrix type="matrix" values="0 0 0 0 0.886275 0 0 0 0 0.129412 0 0 0 0 0.223529 0 0 0 1 0"/>
<feBlend mode="normal" in2="BackgroundImageFix" result="effect1_dropShadow_8079_5"/>
<feBlend mode="normal" in="SourceGraphic" in2="effect1_dropShadow_8079_5" result="shape"/>
</filter>
</defs>
</svg>
