<svg width="283" height="186" viewBox="0 0 283 186" fill="none" xmlns="http://www.w3.org/2000/svg">
<g filter="url(#filter0_di_2009_243)">
<path d="M168.163 27.2102C139.044 18.1344 111.828 12.6133 91.7551 11.0174C81.7184 10.2194 73.441 10.4386 67.9277 11.4967C65.1713 12.0259 63.1311 12.7795 61.9837 13.4582C60.8364 14.1363 60.6891 14.5252 60.6339 14.7022C60.5785 14.8798 60.4791 15.2829 61.0378 16.4928C61.5964 17.7033 62.8472 19.4826 64.8148 21.4841C68.7506 25.4874 75.4376 30.3707 84.1503 35.4165C86.6374 36.8572 89.3072 38.3153 92.1119 39.7819C95.1738 38.4372 103.722 39.0043 116.211 41.3807C128.7 43.7572 144.305 47.7861 160.206 52.7392C176.105 57.6965 191.239 63.2474 202.872 68.3883C214.505 73.5293 221.869 77.9211 223.633 80.7697C226.763 81.1547 229.779 81.4699 232.635 81.6966C242.671 82.4943 250.949 82.2753 256.462 81.2172C259.219 80.688 261.259 79.9344 262.406 79.2557C263.554 78.5776 263.701 78.1888 263.756 78.0117C263.811 77.8341 263.911 77.431 263.352 76.2211C262.794 75.0107 261.543 73.2313 259.575 71.2298C255.639 67.2265 248.952 62.3432 240.24 57.2974C222.815 47.2059 197.281 36.2859 168.163 27.2102ZM53.0209 23.5403L11.7329 76.639L11.6962 76.6824C10.5278 78.1199 10.3741 78.9159 10.6242 80.3974C10.8746 81.8795 11.9376 84.1343 14.1722 86.7835C18.6401 92.0821 27.4453 98.6285 39.0645 105.223C62.3023 118.411 96.7527 132.212 132.011 143.201C167.269 154.19 203.459 162.407 230.075 164.757C243.383 165.932 254.348 165.548 261.035 163.727C264.379 162.816 266.536 161.565 267.584 160.487C268.632 159.41 268.957 158.668 268.812 156.821L268.807 156.764L265 89.6103C263.008 90.435 260.826 91.0348 258.435 91.4933C251.363 92.8507 242.415 92.9708 231.807 92.1274C210.591 90.4407 182.844 84.7597 153.114 75.4933C123.383 66.227 97.3227 55.1372 78.9055 44.4709C69.6966 39.1377 62.4004 33.9543 57.3529 28.8197C55.6464 27.084 54.1915 25.3501 53.0209 23.5403Z" fill="#E84341"/>
<path d="M66.985 6.58641L66.9853 6.58636C73.1328 5.40649 81.9186 5.21956 92.1514 6.03317L66.985 6.58641ZM66.985 6.58641C63.9131 7.17614 61.2614 8.0765 59.4394 9.15395L66.985 6.58641ZM91.9233 45.3256L89.7949 44.2127C86.9409 42.7203 84.2064 41.2273 81.6445 39.7433C81.6444 39.7432 81.6442 39.7431 81.6441 39.743L84.1503 35.4165L91.9233 45.3256ZM91.9233 45.3256L94.1224 44.3599M91.9233 45.3256L94.1224 44.3599M94.1224 44.3599C94.1215 44.3603 94.1226 44.3599 94.1258 44.3589M94.1224 44.3599L94.1258 44.3589M220.643 85.4397L219.382 83.4017C219.387 83.4105 219.117 83.0254 218.165 82.2665C217.278 81.5603 216.033 80.7112 214.392 79.7329C211.115 77.7786 206.566 75.4874 200.851 72.9617C189.436 67.9168 174.488 62.4299 158.719 57.513L220.643 85.4397ZM220.643 85.4397L223.022 85.7323M220.643 85.4397L223.022 85.7323M223.022 85.7323C226.209 86.1242 229.297 86.4474 232.24 86.681C242.471 87.4942 251.257 87.3074 257.405 86.1275L257.405 86.1275M223.022 85.7323L257.405 86.1275M257.405 86.1275C260.477 85.5378 263.129 84.6374 264.951 83.56L257.405 86.1275ZM263.141 67.7244L263.141 67.7246C265.334 69.9553 267.004 72.2028 267.891 74.1247C267.892 74.1251 267.892 74.1256 267.892 74.126L263.352 76.2211L263.141 67.7244ZM263.141 67.7244C258.752 63.2607 251.628 58.115 242.745 52.9706C224.914 42.6434 199.016 31.5892 169.65 22.4367C140.285 13.2841 112.693 7.66632 92.1514 6.03317L263.141 67.7244ZM94.1258 44.3589C94.1704 44.3444 94.6263 44.1966 95.7582 44.1183M94.1258 44.3589L95.7582 44.1183M95.7582 44.1183C96.8862 44.0402 98.3915 44.0486 100.295 44.1749M95.7582 44.1183L100.295 44.1749M100.295 44.1749C104.098 44.4272 109.14 45.1251 115.276 46.2926M100.295 44.1749L115.276 46.2926M115.276 46.2926C127.531 48.6246 142.946 52.5999 158.717 57.5126L115.276 46.2926ZM61.2492 24.9893L61.2493 24.9895L56.4985 18.5892C57.3857 20.5111 59.0564 22.7587 61.2492 24.9893ZM57.2191 20.8246L53.3953 14.9133L49.0737 20.4711L7.84825 73.4894L7.84641 73.4915L7.81613 73.5288C7.05235 74.4685 6.2233 75.6664 5.80323 77.2123C5.3712 78.8022 5.52187 80.2103 5.69391 81.2296L5.69405 81.2304C6.1514 83.9371 7.81463 87.0011 10.3497 90.0067C15.4027 95.9992 24.838 102.898 36.5966 109.571C60.2653 123.004 95.088 136.93 130.523 147.974C165.958 159.019 202.526 167.344 229.635 169.738C243.102 170.927 254.787 170.611 262.349 168.551L262.35 168.551C266.141 167.518 269.254 165.942 271.169 163.972C271.89 163.231 272.814 162.158 273.361 160.604C273.894 159.093 273.891 157.635 273.796 156.429L273.794 156.405L273.794 156.403L269.992 89.3273L269.593 82.2967L263.087 84.9907C261.492 85.6513 259.653 86.1685 257.493 86.5828L257.492 86.583C251.058 87.818 242.62 87.9713 232.203 87.1431L231.807 92.1274L232.203 87.1431C211.456 85.4937 184.086 79.9096 154.602 70.7198C125.117 61.53 99.421 50.5744 81.4113 40.1441L78.9055 44.4709L81.4113 40.1441C72.3684 34.907 65.5112 29.9864 60.9185 25.3145L60.9183 25.3143C59.3768 23.7465 58.1576 22.2754 57.2191 20.8246ZM59.4381 9.15469C58.6222 9.63708 57.8507 10.1945 57.2139 10.889C56.4411 11.7319 56.0646 12.5592 55.8604 13.2144C55.6563 13.8691 55.4957 14.7642 55.653 15.8978C55.7826 16.8312 56.1009 17.728 56.4979 18.5879L59.4381 9.15469Z" stroke="black" stroke-width="10"/>
</g>
<defs>
<filter id="filter0_di_2009_243" x="-3.47803" y="-3.46362" width="286.323" height="188.892" filterUnits="userSpaceOnUse" color-interpolation-filters="sRGB">
<feFlood flood-opacity="0" result="BackgroundImageFix"/>
<feColorMatrix in="SourceAlpha" type="matrix" values="0 0 0 0 0 0 0 0 0 0 0 0 0 0 0 0 0 0 127 0" result="hardAlpha"/>
<feOffset dx="4" dy="10"/>
<feComposite in2="hardAlpha" operator="out"/>
<feColorMatrix type="matrix" values="0 0 0 0 0 0 0 0 0 0 0 0 0 0 0 0 0 0 1 0"/>
<feBlend mode="normal" in2="BackgroundImageFix" result="effect1_dropShadow_2009_243"/>
<feBlend mode="normal" in="SourceGraphic" in2="effect1_dropShadow_2009_243" result="shape"/>
<feColorMatrix in="SourceAlpha" type="matrix" values="0 0 0 0 0 0 0 0 0 0 0 0 0 0 0 0 0 0 127 0" result="hardAlpha"/>
<feOffset dx="-17" dy="-23"/>
<feGaussianBlur stdDeviation="2"/>
<feComposite in2="hardAlpha" operator="arithmetic" k2="-1" k3="1"/>
<feColorMatrix type="matrix" values="0 0 0 0 0 0 0 0 0 0 0 0 0 0 0 0 0 0 0.45 0"/>
<feBlend mode="normal" in2="shape" result="effect2_innerShadow_2009_243"/>
</filter>
</defs>
</svg>
