<svg width="180" height="176" viewBox="0 0 180 176" fill="none" xmlns="http://www.w3.org/2000/svg">
<g filter="url(#filter0_di_2009_158)">
<path d="M155.289 94.1417C158.436 93.8158 161.587 94.7129 164.09 96.6472C166.594 98.5816 168.257 101.405 168.736 104.532C169.216 107.659 168.473 110.851 166.664 113.445C164.854 116.039 162.116 117.837 159.016 118.467L157.846 118.647L56.7476 129.172L69.7352 139.71C72.1945 141.698 73.7954 144.556 74.2064 147.692C74.6175 150.827 73.8072 154 71.9433 156.554C70.0795 159.108 67.3048 160.847 64.1939 161.411C61.0829 161.975 57.8739 161.321 55.2313 159.584L54.2125 158.84L19.6774 130.811C10.8927 123.683 14.6704 109.723 25.4485 107.71L26.5868 107.542L155.289 94.1417ZM104.965 12.1869C106.884 9.81879 109.613 8.24666 112.625 7.77453C115.636 7.3024 118.715 7.96381 121.268 9.63086L122.287 10.3753L156.822 38.4041C165.606 45.5319 161.829 59.4915 151.051 61.5054L149.912 61.6734L21.2097 75.0732C18.0635 75.3992 14.9122 74.5021 12.4088 72.5677C9.90534 70.6334 8.24171 67.8101 7.76262 64.6829C7.28352 61.5557 8.02568 58.3643 9.8353 55.7701C11.6449 53.1758 14.3833 51.3775 17.483 50.7479L18.653 50.5683L119.751 40.0425L106.764 29.5046C104.23 27.4461 102.617 24.4661 102.278 21.2192C101.939 17.9723 102.911 14.7231 104.965 12.1869Z" fill="#E84341"/>
<path d="M154.928 90.6605L154.926 90.6606L26.2236 104.06L26.149 104.068L26.0748 104.079L24.9366 104.247L24.8705 104.257L24.8049 104.269C11.1364 106.823 6.33781 124.494 17.4724 133.528L52.0072 161.557L52.0762 161.613L52.148 161.665L53.1668 162.41L53.2368 162.461L53.3093 162.509C56.7028 164.739 60.8238 165.579 64.819 164.855C68.8142 164.131 72.3773 161.897 74.7708 158.618C77.1642 155.338 78.2046 151.264 77.6768 147.237C77.1492 143.212 75.0946 139.544 71.9381 136.991C71.9371 136.99 71.9362 136.99 71.9353 136.989L65.514 131.779L158.209 122.128L158.294 122.119L158.378 122.106L159.548 121.926L159.631 121.914L159.714 121.897C163.694 121.088 167.211 118.779 169.535 115.448C171.858 112.116 172.811 108.018 172.196 104.003C171.581 99.9873 169.445 96.3619 166.23 93.878C163.015 91.394 158.968 90.2418 154.928 90.6605ZM102.246 9.98314L102.245 9.98362C99.611 13.2358 98.3611 17.4065 98.7967 21.5816C99.2317 25.7508 101.303 29.5774 104.557 32.2208L104.559 32.2221L110.985 37.4363L18.2899 47.0872L18.2053 47.096L18.1212 47.1089L16.9512 47.2885L16.868 47.3013L16.7855 47.318C12.8048 48.1266 9.28824 50.436 6.96445 53.7674C4.64066 57.0987 3.68772 61.1967 4.30291 65.2122C4.91809 69.2276 7.05428 72.853 10.269 75.337C13.4838 77.821 17.5307 78.9731 21.5712 78.5545L21.5729 78.5543L150.276 65.1545L150.35 65.1468L150.424 65.1358L151.563 64.9678L151.629 64.958L151.694 64.9458C165.363 62.3918 170.161 44.7209 159.027 35.6865L124.492 7.65796L124.423 7.60194L124.351 7.5495L123.332 6.8051L123.258 6.75093L123.181 6.70072C119.904 4.55995 115.949 3.71053 112.082 4.31685C108.215 4.92317 104.71 6.94213 102.246 9.98314Z" stroke="black" stroke-width="7"/>
</g>
<defs>
<filter id="filter0_di_2009_158" x="-3.37988" y="-3.37399" width="183.259" height="178.983" filterUnits="userSpaceOnUse" color-interpolation-filters="sRGB">
<feFlood flood-opacity="0" result="BackgroundImageFix"/>
<feColorMatrix in="SourceAlpha" type="matrix" values="0 0 0 0 0 0 0 0 0 0 0 0 0 0 0 0 0 0 127 0" result="hardAlpha"/>
<feOffset dx="4" dy="7"/>
<feComposite in2="hardAlpha" operator="out"/>
<feColorMatrix type="matrix" values="0 0 0 0 0 0 0 0 0 0 0 0 0 0 0 0 0 0 1 0"/>
<feBlend mode="normal" in2="BackgroundImageFix" result="effect1_dropShadow_2009_158"/>
<feBlend mode="normal" in="SourceGraphic" in2="effect1_dropShadow_2009_158" result="shape"/>
<feColorMatrix in="SourceAlpha" type="matrix" values="0 0 0 0 0 0 0 0 0 0 0 0 0 0 0 0 0 0 127 0" result="hardAlpha"/>
<feOffset dx="-11" dy="-13"/>
<feGaussianBlur stdDeviation="2"/>
<feComposite in2="hardAlpha" operator="arithmetic" k2="-1" k3="1"/>
<feColorMatrix type="matrix" values="0 0 0 0 0 0 0 0 0 0 0 0 0 0 0 0 0 0 0.45 0"/>
<feBlend mode="normal" in2="shape" result="effect2_innerShadow_2009_158"/>
</filter>
</defs>
</svg>
