<svg width="190" height="288" viewBox="0 0 190 288" fill="none" xmlns="http://www.w3.org/2000/svg">
<path d="M80.835 283.346L78.9943 257.023C67.4732 257.15 56.5798 256.556 46.3141 255.239C36.0327 253.697 27.1665 251.378 19.7154 248.282L16.1757 197.661C26.6301 201.678 38.1466 204.716 50.725 206.775C63.3034 208.835 74.9921 209.487 85.7911 208.732C97.0401 207.945 105.398 206.23 110.865 203.587C116.317 200.719 118.806 195.911 118.335 189.161C117.847 182.187 113.781 177.384 106.136 174.754C98.7008 171.882 86.5983 168.546 69.8287 164.745C54.8746 161.043 42.9264 156.679 33.9838 151.652C25.0413 146.626 18.3745 140.196 13.9835 132.364C9.81751 124.517 7.32546 114.744 6.50739 103.045C4.02172 67.498 23.0239 45.0308 63.514 35.6432L61.5789 7.97067L113.887 4.31295L115.774 31.3105C124.387 31.6126 132.572 32.2836 140.332 33.3236C148.301 34.1228 155.16 35.2257 160.91 36.6323L164.474 87.5901C153.601 84.0549 143.264 81.7256 133.464 80.6023C123.664 79.4789 114.49 79.2162 105.941 79.814C96.0414 80.5062 87.6755 82.1086 80.8427 84.6211C74.0099 87.1336 70.8217 91.652 71.2779 98.1765C71.6712 103.801 74.8948 107.871 80.9488 110.387C87.2121 112.662 98.1346 115.289 113.716 118.269C131.82 121.751 145.72 126.544 155.416 132.648C165.337 138.737 172.3 146.163 176.304 154.926C180.292 163.464 182.679 173.358 183.466 184.607C184.552 200.13 180.747 213.622 172.053 225.082C163.359 236.541 149.713 245.069 131.113 250.666L133.143 279.688L80.835 283.346Z" fill="#E84341"/>
<path d="M80.835 283.346L76.346 283.66L76.6599 288.149L81.1489 287.835L80.835 283.346ZM78.9943 257.023L83.4834 256.709L83.1874 252.476L78.9446 252.523L78.9943 257.023ZM46.3141 255.239L45.6467 259.689L45.6941 259.696L45.7415 259.702L46.3141 255.239ZM19.7154 248.282L15.2264 248.596L15.4204 251.37L17.9886 252.437L19.7154 248.282ZM16.1757 197.661L17.7896 193.461L11.1938 190.927L11.6867 197.975L16.1757 197.661ZM50.725 206.775L51.4521 202.335L51.4521 202.335L50.725 206.775ZM110.865 203.587L112.824 207.639L112.893 207.605L112.961 207.57L110.865 203.587ZM106.136 174.754L104.515 178.952L104.593 178.982L104.672 179.009L106.136 174.754ZM69.8287 164.745L68.7473 169.113L68.7905 169.124L68.8339 169.134L69.8287 164.745ZM33.9838 151.652L31.7788 155.575L31.7788 155.575L33.9838 151.652ZM13.9835 132.364L10.0089 134.475L10.0331 134.52L10.0584 134.565L13.9835 132.364ZM63.514 35.6432L64.5303 40.0269L68.2708 39.1596L68.003 35.3293L63.514 35.6432ZM61.5789 7.97067L61.265 3.48163L56.776 3.79553L57.0899 8.28457L61.5789 7.97067ZM113.887 4.31295L118.376 3.99905L118.062 -0.489988L113.573 -0.176083L113.887 4.31295ZM115.774 31.3105L111.285 31.6244L111.568 35.6657L115.617 35.8077L115.774 31.3105ZM140.332 33.3236L139.734 37.7837L139.808 37.7936L139.883 37.8011L140.332 33.3236ZM160.91 36.6323L165.399 36.3184L165.17 33.0416L161.98 32.2611L160.91 36.6323ZM164.474 87.5901L163.082 91.8696L169.428 93.9329L168.963 87.2762L164.474 87.5901ZM133.464 80.6023L133.977 76.1316L133.464 80.6023ZM80.8427 84.6211L82.3958 88.8446L82.3958 88.8446L80.8427 84.6211ZM80.9488 110.387L79.222 114.542L79.3164 114.581L79.4125 114.616L80.9488 110.387ZM113.716 118.269L114.566 113.85L114.562 113.849L113.716 118.269ZM155.416 132.648L153.019 136.456L153.04 136.47L153.062 136.483L155.416 132.648ZM176.304 154.926L172.211 156.796L172.219 156.813L172.227 156.83L176.304 154.926ZM172.053 225.082L175.638 227.802L172.053 225.082ZM131.113 250.666L129.817 246.356L126.373 247.392L126.624 250.979L131.113 250.666ZM133.143 279.688L133.457 284.177L137.946 283.863L137.632 279.374L133.143 279.688ZM85.324 283.032L83.4834 256.709L74.5053 257.337L76.346 283.66L85.324 283.032ZM78.9446 252.523C67.6085 252.649 56.9244 252.063 46.8867 250.775L45.7415 259.702C56.2352 261.048 67.3379 261.652 79.0441 261.523L78.9446 252.523ZM46.9815 250.789C36.9653 249.286 28.4724 247.047 21.4422 244.126L17.9886 252.437C25.8606 255.708 35.1001 258.107 45.6467 259.689L46.9815 250.789ZM24.2045 247.968L20.6647 197.347L11.6867 197.975L15.2264 248.596L24.2045 247.968ZM14.5618 201.862C25.339 206.003 37.1572 209.114 49.9979 211.216L51.4521 202.335C39.136 200.318 27.9213 197.353 17.7896 193.461L14.5618 201.862ZM49.9979 211.216C62.8613 213.322 74.9034 214.004 86.105 213.221L85.4772 204.243C75.0808 204.97 63.7454 204.347 51.4521 202.335L49.9979 211.216ZM86.105 213.221C97.5209 212.423 106.572 210.661 112.824 207.639L108.907 199.536C104.225 201.799 96.5592 203.468 85.4772 204.243L86.105 213.221ZM112.961 207.57C116.385 205.768 119.093 203.23 120.817 199.899C122.526 196.598 123.103 192.842 122.824 188.847L113.845 189.475C114.038 192.23 113.606 194.253 112.825 195.761C112.06 197.239 110.798 198.538 108.77 199.605L112.961 207.57ZM122.824 188.847C122.521 184.517 121.073 180.633 118.353 177.421C115.668 174.249 111.974 172.004 107.6 170.499L104.672 179.009C107.942 180.134 110.104 181.606 111.485 183.236C112.831 184.826 113.661 186.831 113.845 189.475L122.824 188.847ZM107.757 170.556C99.9955 167.559 87.6206 164.164 70.8235 160.357L68.8339 169.134C85.576 172.929 97.4061 176.206 104.515 178.952L107.757 170.556ZM70.9101 160.377C56.1732 156.729 44.6495 152.485 36.1888 147.729L31.7788 155.575C41.2032 160.872 53.5761 165.358 68.7473 169.113L70.9101 160.377ZM36.1888 147.729C27.8621 143.049 21.8403 137.176 17.9087 130.164L10.0584 134.565C14.9087 143.216 22.2205 150.202 31.7788 155.575L36.1888 147.729ZM17.9582 130.254C14.1657 123.111 11.784 113.993 10.9964 102.731L2.01835 103.359C2.86696 115.494 5.4693 125.923 10.0089 134.475L17.9582 130.254ZM10.9964 102.731C9.81704 85.8648 13.7409 72.5963 22.3307 62.4403C30.994 52.1972 44.8512 44.5895 64.5303 40.0269L62.4976 31.2594C41.6867 36.0845 25.7978 44.4042 15.4589 56.6283C5.04643 68.9395 0.712074 84.678 2.01835 103.359L10.9964 102.731ZM68.003 35.3293L66.0679 7.65676L57.0899 8.28457L59.0249 35.9571L68.003 35.3293ZM61.8928 12.4597L114.201 8.80199L113.573 -0.176083L61.265 3.48163L61.8928 12.4597ZM109.398 4.62686L111.285 31.6244L120.264 30.9966L118.376 3.99905L109.398 4.62686ZM115.617 35.8077C124.096 36.1052 132.134 36.7651 139.734 37.7837L140.93 28.8635C133.011 27.8021 124.677 27.12 115.932 26.8133L115.617 35.8077ZM139.883 37.8011C147.71 38.5862 154.352 39.6607 159.841 41.0034L161.98 32.2611C155.968 30.7908 148.891 29.6595 140.781 28.846L139.883 37.8011ZM156.421 36.9462L159.985 87.904L168.963 87.2762L165.399 36.3184L156.421 36.9462ZM165.865 83.3107C154.75 79.6968 144.118 77.294 133.977 76.1316L132.952 85.073C142.411 86.1572 152.451 88.413 163.082 91.8696L165.865 83.3107ZM133.977 76.1316C123.943 74.9814 114.489 74.7053 105.627 75.325L106.254 84.303C114.491 83.7271 123.386 83.9765 132.952 85.073L133.977 76.1316ZM105.627 75.325C95.4462 76.0368 86.6356 77.6964 79.2897 80.3976L82.3958 88.8446C88.7154 86.5208 96.6366 84.9756 106.254 84.303L105.627 75.325ZM79.2897 80.3976C75.2844 81.8704 71.9141 84.0914 69.6501 87.2999C67.3535 90.5547 66.5022 94.3914 66.7889 98.4904L75.7669 97.8626C75.5973 95.4372 76.1121 93.7524 77.0038 92.4887C77.9281 91.1788 79.5683 89.8843 82.3958 88.8446L79.2897 80.3976ZM66.7889 98.4904C67.0431 102.126 68.2395 105.434 70.463 108.241C72.6587 111.013 75.6709 113.067 79.222 114.542L82.6756 106.231C80.1728 105.191 78.5462 103.951 77.5182 102.653C76.5181 101.391 75.906 99.8516 75.7669 97.8626L66.7889 98.4904ZM79.4125 114.616C86.0475 117.026 97.2864 119.708 112.871 122.689L114.562 113.849C98.9827 110.87 88.3766 108.297 82.4852 106.157L79.4125 114.616ZM112.866 122.688C130.715 126.121 143.996 130.776 153.019 136.456L157.814 128.84C147.444 122.312 132.926 117.381 114.566 113.85L112.866 122.688ZM153.062 136.483C162.382 142.203 168.65 149.002 172.211 156.796L180.397 153.056C175.95 143.323 168.292 135.27 157.77 128.813L153.062 136.483ZM172.227 156.83C175.94 164.78 178.222 174.117 178.977 184.921L187.955 184.293C187.137 172.599 184.644 162.148 180.381 153.021L172.227 156.83ZM178.977 184.921C179.993 199.453 176.447 211.844 168.468 222.362L175.638 227.802C185.047 215.399 189.11 200.807 187.955 184.293L178.977 184.921ZM168.468 222.362C160.521 232.838 147.819 240.94 129.817 246.356L132.41 254.975C151.606 249.199 166.198 240.245 175.638 227.802L168.468 222.362ZM126.624 250.979L128.654 280.002L137.632 279.374L135.602 250.352L126.624 250.979ZM132.829 275.199L80.5211 278.857L81.1489 287.835L133.457 284.177L132.829 275.199Z" fill="black"/>
</svg>
