<svg width="258" height="272" viewBox="0 0 258 272" fill="none" xmlns="http://www.w3.org/2000/svg">
<g filter="url(#filter0_di_2009_217)">
<path d="M107.76 4.64268C122.725 6.73239 133.439 26.7371 131.601 49.544C129.798 72.2299 116.358 89.0667 101.358 87.098C86.4791 85.1645 75.6434 65.1246 77.3597 42.2826C79.0411 19.5616 92.7244 2.79501 107.76 4.64268ZM194.839 29.7711C208.667 36.2527 211.182 57.6935 200.732 77.884C189.881 98.0902 170.148 109.309 156.406 102.983C142.543 96.6228 140.15 75.2171 150.843 55.0968C161.45 34.8204 181.184 23.6018 194.839 29.7711ZM26.5219 41.5098C42.1188 39.5863 57.8848 55.8045 62.3311 77.4094C66.0637 99.2017 57.0941 118.377 41.619 120.336C26.144 122.295 10.4648 106.233 6.33196 84.456C2.19909 62.6793 11.4472 43.4529 26.5219 41.5098ZM245.742 104.77C257.46 114.445 255.032 135.639 239.923 151.863C224.813 168.087 202.981 173.325 190.932 163.423C178.883 153.522 181.519 132.519 196.299 116.068C211.582 100.157 233.571 94.8336 245.742 104.77ZM187.718 229.361C184.919 240.878 172.515 250.933 160.677 252.631C136.011 256.264 116.134 228.239 91.8984 221.246C67.6624 214.252 35.4121 228.152 17.0885 211.195C6.62262 201.751 2.76377 183.593 8.1225 170.98C15.5235 153.58 40.1203 150.19 56.8403 140.724C78.9416 128.615 100.384 100.059 124.864 107.123C149.222 114.152 153.007 149.464 164.38 171.756C173.633 190.422 192.564 209.389 187.718 229.361Z" fill="#E84341"/>
<path d="M107.76 4.64268C122.725 6.73239 133.439 26.7371 131.601 49.544C129.798 72.2299 116.358 89.0667 101.358 87.098C86.4791 85.1645 75.6434 65.1246 77.3597 42.2826C79.0411 19.5616 92.7244 2.79501 107.76 4.64268ZM194.839 29.7711C208.667 36.2527 211.182 57.6935 200.732 77.884C189.881 98.0902 170.148 109.309 156.406 102.983C142.543 96.6228 140.15 75.2171 150.843 55.0968C161.45 34.8204 181.184 23.6018 194.839 29.7711ZM26.5219 41.5098C42.1188 39.5863 57.8848 55.8045 62.3311 77.4094C66.0637 99.2017 57.0941 118.377 41.619 120.336C26.144 122.295 10.4648 106.233 6.33196 84.456C2.19909 62.6793 11.4472 43.4529 26.5219 41.5098ZM245.742 104.77C257.46 114.445 255.032 135.639 239.923 151.863C224.813 168.087 202.981 173.325 190.932 163.423C178.883 153.522 181.519 132.519 196.299 116.068C211.582 100.157 233.571 94.8336 245.742 104.77ZM187.718 229.361C184.919 240.878 172.515 250.933 160.677 252.631C136.011 256.264 116.134 228.239 91.8984 221.246C67.6624 214.252 35.4121 228.152 17.0885 211.195C6.62262 201.751 2.76377 183.593 8.1225 170.98C15.5235 153.58 40.1203 150.19 56.8403 140.724C78.9416 128.615 100.384 100.059 124.864 107.123C149.222 114.152 153.007 149.464 164.38 171.756C173.633 190.422 192.564 209.389 187.718 229.361Z" stroke="black" stroke-width="9"/>
</g>
<defs>
<filter id="filter0_di_2009_217" x="-3.15527" y="-3.99792" width="260.783" height="275.426" filterUnits="userSpaceOnUse" color-interpolation-filters="sRGB">
<feFlood flood-opacity="0" result="BackgroundImageFix"/>
<feColorMatrix in="SourceAlpha" type="matrix" values="0 0 0 0 0 0 0 0 0 0 0 0 0 0 0 0 0 0 127 0" result="hardAlpha"/>
<feOffset dy="13.9742"/>
<feComposite in2="hardAlpha" operator="out"/>
<feColorMatrix type="matrix" values="0 0 0 0 0 0 0 0 0 0 0 0 0 0 0 0 0 0 1 0"/>
<feBlend mode="normal" in2="BackgroundImageFix" result="effect1_dropShadow_2009_217"/>
<feBlend mode="normal" in="SourceGraphic" in2="effect1_dropShadow_2009_217" result="shape"/>
<feColorMatrix in="SourceAlpha" type="matrix" values="0 0 0 0 0 0 0 0 0 0 0 0 0 0 0 0 0 0 127 0" result="hardAlpha"/>
<feOffset dx="-12" dy="-19"/>
<feGaussianBlur stdDeviation="2"/>
<feComposite in2="hardAlpha" operator="arithmetic" k2="-1" k3="1"/>
<feColorMatrix type="matrix" values="0 0 0 0 0 0 0 0 0 0 0 0 0 0 0 0 0 0 0.45 0"/>
<feBlend mode="normal" in2="shape" result="effect2_innerShadow_2009_217"/>
</filter>
</defs>
</svg>
