<svg width="364" height="273" viewBox="0 0 364 273" fill="none" xmlns="http://www.w3.org/2000/svg">
<g filter="url(#filter0_d_8079_4)">
<circle cx="105.773" cy="116.455" r="83.8811" transform="rotate(9.2663 105.773 116.455)" fill="#FFF0F4"/>
<path d="M94.7758 183.863C131.559 189.865 166.245 164.909 172.247 128.126C178.248 91.3419 153.293 56.6561 116.509 50.6547C79.7253 44.6534 45.0395 69.6086 39.0381 106.392C33.0368 143.176 57.9921 177.862 94.7758 183.863ZM141.314 155.03C141.635 157.258 139.715 159.12 137.586 158.835L62.2016 146.536C60.0824 146.19 58.844 143.874 59.7854 141.915L63.1395 134.692C63.73 133.358 65.1596 132.597 66.6127 132.834L67.2788 132.943L74.9546 85.8959C72.6881 83.7856 72.8854 79.5287 76.3402 78.1653L112.257 63.7608C113.859 63.0896 115.675 63.386 116.98 64.5313L146.396 89.5951C149.238 91.9858 148.072 96.0847 145.192 97.3553L137.526 144.342L137.344 144.312C138.737 144.539 139.86 145.655 140.067 147.056L141.314 155.03Z" fill="#E84341"/>
<path d="M141.314 155.03C141.635 157.258 139.715 159.12 137.586 158.835L62.2016 146.536C60.0824 146.19 58.844 143.874 59.7854 141.915L63.1395 134.692C63.73 133.358 65.1596 132.597 66.6127 132.834L67.2788 132.943L74.9546 85.8959C72.6881 83.7856 72.8854 79.5287 76.3402 78.1653L112.257 63.7608C113.859 63.0896 115.675 63.386 116.98 64.5313L146.396 89.5951C149.238 91.9858 148.072 96.0847 145.192 97.3553L137.526 144.342L137.344 144.312C138.737 144.539 139.86 145.655 140.067 147.056L141.314 155.03Z" fill="#E84341"/>
<path d="M120.46 26.4348C70.3012 18.2513 23.0017 52.2816 14.8181 102.441C6.63451 152.6 40.6649 199.899 90.8239 208.083C140.983 216.266 188.283 182.236 196.466 132.077C204.65 81.9179 170.619 34.6184 120.46 26.4348ZM26.928 104.416C34.0209 60.942 75.0101 31.4518 118.484 38.5447C161.959 45.6377 191.449 86.6268 184.356 130.101C177.263 173.576 136.274 203.066 92.7997 195.973C49.3253 188.88 19.835 147.891 26.928 104.416Z" fill="#E84341"/>
<g filter="url(#filter1_d_8079_4)">
<path d="M95.8911 65.7925C102.159 66.1361 107.291 74.0439 107.325 83.5491C107.369 93.0029 102.392 100.441 96.1139 100.149C89.8875 99.8667 84.7037 91.9485 84.6183 82.4331C84.5226 72.969 89.6027 65.5516 95.8911 65.7925ZM132.814 73.1605C138.764 75.3617 140.552 84.1497 136.93 92.8719C133.142 101.614 125.364 106.946 119.455 104.806C113.495 102.656 111.758 93.8788 115.484 85.1772C119.168 76.414 126.946 71.0824 132.814 73.1605ZM63.5467 83.8846C69.9361 82.5449 77.0276 88.7092 79.621 97.4978C81.9255 106.389 78.8806 114.639 72.5428 115.989C66.2051 117.339 59.1549 111.237 56.6853 102.366C54.2157 93.4954 57.3741 85.2142 63.5467 83.8846ZM156.499 102.433C161.687 106.03 161.42 114.888 155.731 122.131C150.041 129.373 141.186 132.302 135.853 128.623C130.521 124.944 130.88 116.158 136.425 108.833C142.197 101.714 151.114 98.744 156.499 102.433ZM136.82 156.03C136.063 160.895 131.279 165.49 126.438 166.605C116.353 168.969 107.149 158.06 96.8724 156.01C86.5961 153.959 73.7301 160.837 65.5541 154.456C60.8926 150.911 58.6625 143.529 60.4413 138.121C62.8987 130.66 72.9626 128.4 79.5542 123.899C88.2813 118.116 96.1627 105.548 106.542 107.619C116.87 109.68 119.668 124.166 125.152 132.998C129.633 140.402 138.13 147.594 136.82 156.03Z" fill="#FFF0F4"/>
</g>
</g>
<g filter="url(#filter2_d_8079_4)">
<circle cx="227.322" cy="135.194" r="99.0542" transform="rotate(17.333 227.322 135.194)" fill="#FFF0F4"/>
<path d="M203.293 212.185C245.306 225.298 289.996 201.868 303.108 159.854C316.221 117.841 292.791 73.1511 250.777 60.0389C208.764 46.9267 164.074 70.3567 150.962 112.37C137.85 154.383 161.28 199.073 203.293 212.185ZM262.484 186.185C262.489 188.843 259.936 190.702 257.494 190.016L171.393 163.144C168.972 162.389 167.908 159.476 169.333 157.341L174.452 149.451C175.363 147.99 177.161 147.337 178.821 147.855L179.581 148.092L196.352 94.3571C194.052 91.5142 194.988 86.5696 199.253 85.5481L243.634 74.658C245.618 74.1387 247.693 74.7862 249.029 76.3416L279.268 110.521C282.195 113.787 280.153 118.386 276.575 119.394L259.826 173.061L259.618 172.996C261.209 173.492 262.337 174.983 262.347 176.656L262.484 186.185Z" fill="#E84341"/>
<path d="M262.484 186.185C262.489 188.843 259.936 190.702 257.494 190.016L171.393 163.144C168.972 162.389 167.908 159.476 169.333 157.341L174.452 149.451C175.363 147.99 177.161 147.337 178.821 147.855L179.581 148.092L196.352 94.3571C194.052 91.5142 194.988 86.5696 199.253 85.5481L243.634 74.658C245.618 74.1387 247.693 74.7862 249.029 76.3416L279.268 110.521C282.195 113.787 280.153 118.386 276.575 119.394L259.826 173.061L259.618 172.996C261.209 173.492 262.337 174.983 262.347 176.656L262.484 186.185Z" fill="#E84341"/>
<path d="M259.411 32.3758C202.121 14.4957 141.179 46.4462 123.299 103.736C105.419 161.026 137.369 221.968 194.659 239.848C251.95 257.729 312.891 225.778 330.772 168.488C348.652 111.198 316.701 50.2559 259.411 32.3758ZM137.13 108.053C152.628 58.398 205.439 30.7101 255.094 46.2073C304.749 61.7046 332.437 114.516 316.94 164.171C301.443 213.826 248.631 241.514 198.976 226.017C149.321 210.52 121.633 157.708 137.13 108.053Z" fill="#E84341"/>
<g filter="url(#filter3_d_8079_4)">
<path d="M224.162 74.3213C231.434 75.7617 236.124 85.8579 234.588 96.977C233.073 108.038 226.022 115.91 218.73 114.528C211.497 113.166 206.748 103.049 208.225 91.9095C209.681 80.8282 216.85 72.9975 224.162 74.3213ZM266.112 89.0543C272.704 92.6141 273.338 103.185 267.658 112.783C261.78 122.377 251.803 127.322 245.249 123.841C238.636 120.34 238.06 109.789 243.858 100.233C249.618 90.5972 259.596 85.6524 266.112 89.0543ZM183.347 90.1148C191.04 89.6072 198.31 97.9897 199.886 108.695C201.107 119.472 196.179 128.614 188.546 129.143C180.912 129.671 173.68 121.367 172.262 110.586C170.845 99.8056 175.91 90.6466 183.347 90.1148ZM288.953 127.205C294.423 132.27 292.644 142.583 284.791 150.108C276.939 157.633 266.101 159.59 260.475 154.405C254.849 149.22 256.726 139.007 264.423 131.361C272.351 123.994 283.269 121.999 288.953 127.205ZM257.064 186.61C255.372 192.173 249.017 196.752 243.172 197.254C230.99 198.346 222.035 184.067 210.36 179.966C198.685 175.866 182.502 181.775 174 172.96C169.137 168.043 167.753 159.042 170.729 153.013C174.839 144.698 186.98 143.722 195.433 139.552C206.595 134.237 217.892 120.848 229.685 124.99C241.419 129.111 242.289 146.512 247.238 157.747C251.25 167.146 259.994 176.963 257.064 186.61Z" fill="#FFF0F4"/>
</g>
</g>
<defs>
<filter id="filter0_d_8079_4" x="13.6035" y="25.2202" width="194.278" height="199.378" filterUnits="userSpaceOnUse" color-interpolation-filters="sRGB">
<feFlood flood-opacity="0" result="BackgroundImageFix"/>
<feColorMatrix in="SourceAlpha" type="matrix" values="0 0 0 0 0 0 0 0 0 0 0 0 0 0 0 0 0 0 127 0" result="hardAlpha"/>
<feOffset dx="10.2004" dy="15.3006"/>
<feComposite in2="hardAlpha" operator="out"/>
<feColorMatrix type="matrix" values="0 0 0 0 0 0 0 0 0 0 0 0 0 0 0 0 0 0 1 0"/>
<feBlend mode="normal" in2="BackgroundImageFix" result="effect1_dropShadow_8079_4"/>
<feBlend mode="normal" in="SourceGraphic" in2="effect1_dropShadow_8079_4" result="shape"/>
</filter>
<filter id="filter1_d_8079_4" x="55.8428" y="65.7869" width="106.91" height="106.252" filterUnits="userSpaceOnUse" color-interpolation-filters="sRGB">
<feFlood flood-opacity="0" result="BackgroundImageFix"/>
<feColorMatrix in="SourceAlpha" type="matrix" values="0 0 0 0 0 0 0 0 0 0 0 0 0 0 0 0 0 0 127 0" result="hardAlpha"/>
<feOffset dx="2.5501" dy="5.10021"/>
<feComposite in2="hardAlpha" operator="out"/>
<feColorMatrix type="matrix" values="0 0 0 0 0.886275 0 0 0 0 0.129412 0 0 0 0 0.223529 0 0 0 1 0"/>
<feBlend mode="normal" in2="BackgroundImageFix" result="effect1_dropShadow_8079_4"/>
<feBlend mode="normal" in="SourceGraphic" in2="effect1_dropShadow_8079_4" result="shape"/>
</filter>
<filter id="filter2_d_8079_4" x="118.335" y="27.4124" width="227.6" height="232.7" filterUnits="userSpaceOnUse" color-interpolation-filters="sRGB">
<feFlood flood-opacity="0" result="BackgroundImageFix"/>
<feColorMatrix in="SourceAlpha" type="matrix" values="0 0 0 0 0 0 0 0 0 0 0 0 0 0 0 0 0 0 127 0" result="hardAlpha"/>
<feOffset dx="10.2004" dy="15.3006"/>
<feComposite in2="hardAlpha" operator="out"/>
<feColorMatrix type="matrix" values="0 0 0 0 0 0 0 0 0 0 0 0 0 0 0 0 0 0 1 0"/>
<feBlend mode="normal" in2="BackgroundImageFix" result="effect1_dropShadow_8079_4"/>
<feBlend mode="normal" in="SourceGraphic" in2="effect1_dropShadow_8079_4" result="shape"/>
</filter>
<filter id="filter3_d_8079_4" x="169.168" y="74.1753" width="125.497" height="128.238" filterUnits="userSpaceOnUse" color-interpolation-filters="sRGB">
<feFlood flood-opacity="0" result="BackgroundImageFix"/>
<feColorMatrix in="SourceAlpha" type="matrix" values="0 0 0 0 0 0 0 0 0 0 0 0 0 0 0 0 0 0 127 0" result="hardAlpha"/>
<feOffset dx="2.5501" dy="5.10021"/>
<feComposite in2="hardAlpha" operator="out"/>
<feColorMatrix type="matrix" values="0 0 0 0 0.886275 0 0 0 0 0.129412 0 0 0 0 0.223529 0 0 0 1 0"/>
<feBlend mode="normal" in2="BackgroundImageFix" result="effect1_dropShadow_8079_4"/>
<feBlend mode="normal" in="SourceGraphic" in2="effect1_dropShadow_8079_4" result="shape"/>
</filter>
</defs>
</svg>
