<svg width="278" height="280" viewBox="0 0 278 280" fill="none" xmlns="http://www.w3.org/2000/svg">
<g filter="url(#filter0_di_2009_223)">
<path d="M185.423 0.188293C161.938 -0.63919 139.009 7.44387 121.235 22.816C103.461 38.1882 92.1562 59.7126 89.5891 83.0714C71.7748 83.7659 54.5343 89.56 39.9163 99.7652C25.2983 109.97 13.9173 124.158 7.12563 140.641C0.333956 157.125 -1.58285 175.211 1.60298 192.752C4.78881 210.293 12.9433 226.551 25.0976 239.593C37.2519 252.636 52.8949 261.915 70.1679 266.328C87.4409 270.741 105.618 270.102 122.539 264.488C139.459 258.874 154.413 248.52 165.622 234.657C176.831 220.794 183.825 204.004 185.772 186.283C209.847 185.339 232.618 175.099 249.301 157.717C265.985 140.334 275.28 117.161 275.235 93.0676C275.19 68.9743 265.807 45.8365 249.059 28.5163C232.311 11.1962 209.501 1.04225 185.423 0.188293ZM184.502 157.671C181.08 140.81 173.061 125.223 161.332 112.637C149.602 100.05 134.619 90.9533 118.041 86.3534C119.363 74.0698 124.187 62.4249 131.939 52.805C139.691 43.1851 150.044 35.9953 161.765 32.0918C173.487 28.1882 186.084 27.7353 198.055 30.7868C210.027 33.8384 220.87 40.2659 229.292 49.3042C237.715 58.3425 243.363 69.6108 245.564 81.7677C247.765 93.9246 246.427 106.458 241.707 117.876C236.988 129.293 229.087 139.114 218.945 146.169C208.803 153.225 196.848 157.217 184.502 157.671ZM157.641 178.382C157.038 195.468 149.673 211.615 137.166 223.271C124.659 234.927 108.033 241.136 90.9474 240.534C73.8615 239.932 57.7146 232.567 46.059 220.059C34.4033 207.552 28.1936 190.926 28.7959 173.841C29.3982 156.755 36.7631 140.608 49.2706 128.952C61.778 117.297 78.4034 111.087 95.4892 111.689C112.575 112.291 128.722 119.656 140.378 132.164C152.033 144.671 158.243 161.297 157.641 178.382ZM11.359 58.5549C11.8943 43.3674 18.441 29.0147 29.5587 18.6541C40.6764 8.29349 55.4545 2.77374 70.6419 3.30911L92.1161 4.06609L91.1068 32.6983L69.6326 31.9413C62.0389 31.6736 54.6499 34.4335 49.091 39.6138C43.5322 44.7941 40.2588 51.9704 39.9911 59.5642L39.2342 81.0383L10.602 80.029L11.359 58.5549ZM235.37 209.79L236.127 188.316L264.759 189.325L264.002 210.8C263.467 225.987 256.92 240.34 245.802 250.7C234.685 261.061 219.907 266.581 204.719 266.045L183.245 265.288L184.254 236.656L205.728 237.413C213.322 237.681 220.711 234.921 226.27 229.741C231.829 224.56 235.102 217.384 235.37 209.79Z" fill="#E84341"/>
<path d="M184.502 157.671C181.08 140.81 173.061 125.223 161.332 112.637C149.602 100.05 134.619 90.9533 118.041 86.3534C119.363 74.0698 124.187 62.4249 131.939 52.805C139.691 43.1851 150.044 35.9953 161.765 32.0918C173.487 28.1882 186.084 27.7353 198.055 30.7868C210.027 33.8384 220.87 40.2659 229.292 49.3042C237.715 58.3425 243.363 69.6108 245.564 81.7677C247.765 93.9246 246.427 106.458 241.707 117.876C236.988 129.293 229.087 139.114 218.945 146.169C208.803 153.225 196.848 157.217 184.502 157.671Z" fill="#E84341"/>
<path d="M157.641 178.382C157.038 195.468 149.673 211.615 137.166 223.271C124.659 234.927 108.033 241.136 90.9474 240.534C73.8615 239.932 57.7146 232.567 46.059 220.059C34.4033 207.552 28.1936 190.926 28.7959 173.841C29.3982 156.755 36.7631 140.608 49.2706 128.952C61.778 117.297 78.4034 111.087 95.4892 111.689C112.575 112.291 128.722 119.656 140.378 132.164C152.033 144.671 158.243 161.297 157.641 178.382Z" fill="#E84341"/>
<path d="M93.3028 87.0566L89.7499 87.1951C72.7251 87.8588 56.2488 93.3961 42.2787 103.149C28.3085 112.902 17.4319 126.46 10.9413 142.213C4.45061 157.966 2.61876 175.251 5.66339 192.015C8.70802 208.778 16.5011 224.315 28.1167 236.78C39.7323 249.244 54.682 258.112 71.1894 262.329C87.6969 266.547 105.068 265.937 121.239 260.571C137.41 255.206 151.7 245.311 162.413 232.062C173.125 218.814 179.809 202.768 181.67 185.832L182.058 182.299L185.61 182.159C208.618 181.257 230.38 171.471 246.324 154.859C262.268 138.247 271.151 116.101 271.108 93.0753C271.065 70.0499 262.098 47.9376 246.093 31.3851C230.087 14.8328 208.288 5.12891 185.278 4.31257L93.3028 87.0566ZM93.3028 87.0566L93.6912 83.5222M93.3028 87.0566L93.6912 83.5222M93.6912 83.5222C96.1445 61.1987 106.948 40.6283 123.934 25.9374C140.92 11.2468 162.833 3.52198 185.277 4.31254L93.6912 83.5222ZM180.457 158.491L181.153 161.924L184.653 161.795C197.79 161.312 210.511 157.064 221.302 149.557C232.093 142.05 240.5 131.601 245.521 119.452C250.543 107.303 251.967 93.9677 249.625 81.0325C247.283 68.0973 241.274 56.1076 232.312 46.4907C223.35 36.8738 211.813 30.0348 199.075 26.7879C186.336 23.5409 172.934 24.0229 160.462 28.1764C147.989 32.3298 136.974 39.9798 128.726 50.2156C120.477 60.4514 115.344 72.8418 113.938 85.9118L113.563 89.3937L116.938 90.33C132.782 94.7263 147.102 103.42 158.313 115.45C169.523 127.48 177.187 142.376 180.457 158.491ZM216.589 142.782C208.034 148.733 198.1 152.356 187.762 153.324C183.832 137.073 175.778 122.085 164.351 109.823C152.924 97.5613 138.541 88.4714 122.606 83.4068C124.3 73.1631 128.613 63.5091 135.152 55.3944C142.408 46.3903 152.098 39.6609 163.069 36.0072C174.041 32.3536 185.831 31.9296 197.036 34.7858C208.241 37.642 218.39 43.658 226.273 52.1177C234.157 60.5774 239.443 71.1243 241.503 82.5029C243.564 93.8815 242.31 105.612 237.893 116.299C233.476 126.986 226.081 136.178 216.589 142.782ZM153.516 178.237C152.953 194.229 146.059 209.342 134.353 220.252C122.646 231.161 107.085 236.973 91.0927 236.41C75.1007 235.846 59.9875 228.952 49.0781 217.246C38.1686 205.539 32.3564 189.978 32.9201 173.986C33.4839 157.994 40.3773 142.881 52.0841 131.971C63.7908 121.062 79.3518 115.25 95.3439 115.813C111.336 116.377 126.449 123.271 137.359 134.977C148.268 146.684 154.08 162.245 153.516 178.237ZM139.98 226.29C153.288 213.888 161.124 196.708 161.765 178.528C162.406 160.348 155.799 142.658 143.397 129.35C130.995 116.042 113.814 108.206 95.6346 107.565C77.4549 106.924 59.7652 113.531 46.4571 125.933C33.1489 138.335 25.3124 155.515 24.6716 173.695C24.0307 191.875 30.638 209.565 43.0399 222.873C55.4417 236.181 72.6223 244.017 90.802 244.658C108.982 245.299 126.671 238.692 139.98 226.29ZM15.4832 58.7002C15.98 44.6066 22.0552 31.2876 32.3722 21.6732C42.6892 12.0588 56.4029 6.93657 70.4966 7.43338L87.8464 8.04498L87.1279 28.4286L69.778 27.817C61.0905 27.5108 52.6371 30.6682 46.2775 36.5947C39.9179 42.5212 36.1731 50.7312 35.8669 59.4188L35.2553 76.7687L14.8716 76.0501L15.4832 58.7002ZM239.494 209.936L240.106 192.586L260.489 193.304L259.878 210.654C259.381 224.748 253.306 238.067 242.989 247.681C232.672 257.296 218.958 262.418 204.865 261.921L187.515 261.309L188.233 240.926L205.583 241.537C214.271 241.844 222.724 238.686 229.084 232.76C235.443 226.833 239.188 218.623 239.494 209.936Z" stroke="black" stroke-width="8.25367"/>
</g>
<defs>
<filter id="filter0_di_2009_223" x="-3.896" y="-3.86951" width="281.24" height="283.412" filterUnits="userSpaceOnUse" color-interpolation-filters="sRGB">
<feFlood flood-opacity="0" result="BackgroundImageFix"/>
<feColorMatrix in="SourceAlpha" type="matrix" values="0 0 0 0 0 0 0 0 0 0 0 0 0 0 0 0 0 0 127 0" result="hardAlpha"/>
<feOffset dx="2.10832" dy="10.3171"/>
<feComposite in2="hardAlpha" operator="out"/>
<feColorMatrix type="matrix" values="0 0 0 0 0 0 0 0 0 0 0 0 0 0 0 0 0 0 1 0"/>
<feBlend mode="normal" in2="BackgroundImageFix" result="effect1_dropShadow_2009_223"/>
<feBlend mode="normal" in="SourceGraphic" in2="effect1_dropShadow_2009_223" result="shape"/>
<feColorMatrix in="SourceAlpha" type="matrix" values="0 0 0 0 0 0 0 0 0 0 0 0 0 0 0 0 0 0 127 0" result="hardAlpha"/>
<feOffset dx="-13" dy="-12"/>
<feGaussianBlur stdDeviation="2"/>
<feComposite in2="hardAlpha" operator="arithmetic" k2="-1" k3="1"/>
<feColorMatrix type="matrix" values="0 0 0 0 0 0 0 0 0 0 0 0 0 0 0 0 0 0 0.45 0"/>
<feBlend mode="normal" in2="shape" result="effect2_innerShadow_2009_223"/>
</filter>
</defs>
</svg>
