<svg width="188" height="190" viewBox="0 0 188 190" fill="none" xmlns="http://www.w3.org/2000/svg">
<mask id="path-1-outside-1_2009_218" maskUnits="userSpaceOnUse" x="-3.7477" y="-46.1531" width="272.215" height="278.96" fill="black">
<rect fill="white" x="-3.7477" y="-46.1531" width="272.215" height="278.96"/>
<path d="M173.131 7.75371C163.374 7.71613 152.95 7.69085 142.705 7.59822C142.474 7.58967 142.243 7.58112 141.974 7.5989C140.819 7.55616 139.524 7.55446 138.225 7.95012L138.122 7.96482C116.674 16.2682 94.8438 24.6684 73.7257 32.7991C54.567 40.1887 35.4462 47.552 16.2874 54.9417C15.791 55.1175 15.2945 55.2932 14.7601 55.4953C12.9904 56.1047 10.9666 56.8342 9.30436 58.3258C8.82614 58.7704 8.50299 59.2762 8.2706 59.8315L8.07949 60.5271C7.83411 61.7106 8.06213 62.847 8.21576 63.4721L8.31321 63.8548L9.52788 65.6009L9.78858 65.8139C40.3442 87.6635 71.4557 109.746 101.528 131.143C124.68 147.606 148.69 164.656 172.22 181.419C173.77 182.595 175.86 182.608 177.71 181.549L178.089 181.285C179.72 180.153 180.607 178.355 180.43 176.564L179.973 111.868C179.873 96.1195 179.747 80.3333 179.648 64.585C179.608 58.1396 179.541 51.6562 179.501 45.2108C179.415 34.5756 179.322 23.6073 179.323 12.8552L179.325 12.2913L179.008 11.8358C178.198 10.4282 176.334 7.66889 173.131 7.75371ZM149.048 48.1699C144.554 56.7496 139.988 65.5484 135.357 74.3357C136.425 66.8958 137.505 59.3917 138.573 51.9518C139.884 42.598 141.292 32.8963 142.664 23.3876L142.699 23.1947C142.731 22.2714 142.904 21.307 143.089 20.2784C143.215 19.5712 143.38 18.8377 143.454 18.0546C147.608 18.0419 151.826 18.0409 155.903 18.0809C158.853 18.1161 161.84 18.1249 164.865 18.1075C159.478 28.1518 154.17 38.31 149.048 48.1699ZM129.65 58.9345C128.318 68.5834 126.903 78.5159 125.473 88.3461C105.526 82.7171 85.22 77.0562 65.572 71.6138C56.6503 69.1387 47.6643 66.6519 38.7427 64.1768L38.6784 64.1652C36.707 63.6762 34.6943 63.047 32.7344 62.4937C31.4443 62.0946 30.1427 61.7598 28.8147 61.3871C34.0069 59.4713 39.1841 57.4534 44.2591 55.4501C48.7239 53.7016 53.3668 51.8857 57.9602 50.1605C83.6833 40.2403 109.444 30.2937 135.167 20.3735C133.286 33.2749 131.447 46.3165 129.65 58.9345ZM162.035 146.16C159.68 141.885 157.283 137.469 154.864 133.182C152.961 129.719 151.005 126.18 149.154 122.792C146.173 117.375 143.098 111.742 139.989 106.301L139.469 105.311C137.577 101.784 135.606 98.1421 133.484 94.6058C133.743 94.0884 134.039 93.5447 134.4 93.0126C134.785 92.3519 135.195 91.7292 135.526 90.9926C141.093 80.317 146.66 69.6414 152.291 58.9775C157.885 48.3399 163.6 37.3924 169.266 26.5356C169.334 43.9377 169.444 61.4799 169.609 78.5342C169.711 93.1547 169.835 108.211 169.891 123.088C169.959 129.008 169.966 135.082 170.019 140.899C170.048 147.409 170.08 154.085 170.188 160.709C167.398 155.89 164.658 150.981 162.035 146.16ZM32.2396 72.2938C30.7959 71.2696 29.2878 70.2338 27.9085 69.2212C46.7581 74.4861 65.7364 79.7742 84.1851 84.8671C93.7386 87.5228 103.266 90.1405 112.846 92.8341C114.688 93.2999 116.584 93.8416 118.415 94.3716C120.787 95.0326 123.212 95.7696 125.698 96.3516C127.963 100.577 130.33 104.788 132.553 108.874C134.136 111.715 135.719 114.557 137.291 117.462L137.317 117.5C138.391 119.287 139.352 121.153 140.324 122.955C141.67 125.455 144.707 131.115 144.707 131.115L144.854 131.407C149.505 139.548 154.057 147.871 158.489 155.94C160.313 159.289 162.227 162.688 164.104 166.114C163.518 165.676 162.895 165.265 162.335 164.865C160.71 163.742 159.032 162.542 157.419 161.355L145.517 152.899C107.758 126.03 70.0253 99.2 32.2396 72.2938Z"/>
</mask>
<g filter="url(#filter0_i_2009_218)">
<path d="M173.131 7.75371C163.374 7.71613 152.95 7.69085 142.705 7.59822C142.474 7.58967 142.243 7.58112 141.974 7.5989C140.819 7.55616 139.524 7.55446 138.225 7.95012L138.122 7.96482C116.674 16.2682 94.8438 24.6684 73.7257 32.7991C54.567 40.1887 35.4462 47.552 16.2874 54.9417C15.791 55.1175 15.2945 55.2932 14.7601 55.4953C12.9904 56.1047 10.9666 56.8342 9.30436 58.3258C8.82614 58.7704 8.50299 59.2762 8.2706 59.8315L8.07949 60.5271C7.83411 61.7106 8.06213 62.847 8.21576 63.4721L8.31321 63.8548L9.52788 65.6009L9.78858 65.8139C40.3442 87.6635 71.4557 109.746 101.528 131.143C124.68 147.606 148.69 164.656 172.22 181.419C173.77 182.595 175.86 182.608 177.71 181.549L178.089 181.285C179.72 180.153 180.607 178.355 180.43 176.564L179.973 111.868C179.873 96.1195 179.747 80.3333 179.648 64.585C179.608 58.1396 179.541 51.6562 179.501 45.2108C179.415 34.5756 179.322 23.6073 179.323 12.8552L179.325 12.2913L179.008 11.8358C178.198 10.4282 176.334 7.66889 173.131 7.75371ZM149.048 48.1699C144.554 56.7496 139.988 65.5484 135.357 74.3357C136.425 66.8958 137.505 59.3917 138.573 51.9518C139.884 42.598 141.292 32.8963 142.664 23.3876L142.699 23.1947C142.731 22.2714 142.904 21.307 143.089 20.2784C143.215 19.5712 143.38 18.8377 143.454 18.0546C147.608 18.0419 151.826 18.0409 155.903 18.0809C158.853 18.1161 161.84 18.1249 164.865 18.1075C159.478 28.1518 154.17 38.31 149.048 48.1699ZM129.65 58.9345C128.318 68.5834 126.903 78.5159 125.473 88.3461C105.526 82.7171 85.22 77.0562 65.572 71.6138C56.6503 69.1387 47.6643 66.6519 38.7427 64.1768L38.6784 64.1652C36.707 63.6762 34.6943 63.047 32.7344 62.4937C31.4443 62.0946 30.1427 61.7598 28.8147 61.3871C34.0069 59.4713 39.1841 57.4534 44.2591 55.4501C48.7239 53.7016 53.3668 51.8857 57.9602 50.1605C83.6833 40.2403 109.444 30.2937 135.167 20.3735C133.286 33.2749 131.447 46.3165 129.65 58.9345ZM162.035 146.16C159.68 141.885 157.283 137.469 154.864 133.182C152.961 129.719 151.005 126.18 149.154 122.792C146.173 117.375 143.098 111.742 139.989 106.301L139.469 105.311C137.577 101.784 135.606 98.1421 133.484 94.6058C133.743 94.0884 134.039 93.5447 134.4 93.0126C134.785 92.3519 135.195 91.7292 135.526 90.9926C141.093 80.317 146.66 69.6414 152.291 58.9775C157.885 48.3399 163.6 37.3924 169.266 26.5356C169.334 43.9377 169.444 61.4799 169.609 78.5342C169.711 93.1547 169.835 108.211 169.891 123.088C169.959 129.008 169.966 135.082 170.019 140.899C170.048 147.409 170.08 154.085 170.188 160.709C167.398 155.89 164.658 150.981 162.035 146.16ZM32.2396 72.2938C30.7959 71.2696 29.2878 70.2338 27.9085 69.2212C46.7581 74.4861 65.7364 79.7742 84.1851 84.8671C93.7386 87.5228 103.266 90.1405 112.846 92.8341C114.688 93.2999 116.584 93.8416 118.415 94.3716C120.787 95.0326 123.212 95.7696 125.698 96.3516C127.963 100.577 130.33 104.788 132.553 108.874C134.136 111.715 135.719 114.557 137.291 117.462L137.317 117.5C138.391 119.287 139.352 121.153 140.324 122.955C141.67 125.455 144.707 131.115 144.707 131.115L144.854 131.407C149.505 139.548 154.057 147.871 158.489 155.94C160.313 159.289 162.227 162.688 164.104 166.114C163.518 165.676 162.895 165.265 162.335 164.865C160.71 163.742 159.032 162.542 157.419 161.355L145.517 152.899C107.758 126.03 70.0253 99.2 32.2396 72.2938Z" fill="#E84341"/>
</g>
<path d="M173.131 7.75371L173.106 14.7504L173.213 14.7509L173.319 14.748L173.131 7.75371ZM142.705 7.59822L142.448 14.5902L142.546 14.5938L142.644 14.5947L142.705 7.59822ZM141.974 7.5989L141.717 14.5909L142.078 14.6043L142.439 14.5804L141.974 7.5989ZM138.225 7.95012L139.225 14.8756L139.755 14.7993L140.268 14.6432L138.225 7.95012ZM138.122 7.96482L137.123 1.03938L136.333 1.15284L135.59 1.44061L138.122 7.96482ZM73.7257 32.7991L71.2055 26.2702L71.2015 26.2717L73.7257 32.7991ZM16.2874 54.9417L18.6287 61.5367L18.7206 61.5042L18.8116 61.4691L16.2874 54.9417ZM14.7601 55.4953L17.0441 62.1104L17.1433 62.0762L17.2414 62.0391L14.7601 55.4953ZM9.30436 58.3258L4.62364 53.1198L4.57789 53.1609L4.53286 53.2027L9.30436 58.3258ZM8.2706 59.8315L1.80921 57.1308L1.63602 57.5447L1.51716 57.9772L8.2706 59.8315ZM8.07949 60.5271L1.32605 58.6728L1.26704 58.8876L1.22183 59.1057L8.07949 60.5271ZM8.21576 63.4721L1.41457 65.1383L1.42158 65.1668L1.42882 65.1952L8.21576 63.4721ZM8.31321 63.8548L1.52628 65.5779L1.83903 66.8059L2.56297 67.8466L8.31321 63.8548ZM9.52788 65.6009L3.77763 69.5927L4.33673 70.3964L5.09502 71.0161L9.52788 65.6009ZM9.78858 65.8139L5.35573 71.2291L5.53039 71.3718L5.71388 71.5031L9.78858 65.8139ZM101.528 131.143L97.4666 136.842L97.4683 136.843L101.528 131.143ZM172.22 181.419L176.456 175.849L176.371 175.785L176.285 175.723L172.22 181.419ZM177.71 181.549L181.194 187.62L181.458 187.468L181.707 187.295L177.71 181.549ZM180.43 176.564L173.427 176.611L173.429 176.931L173.461 177.25L180.43 176.564ZM179.973 111.868L172.969 111.91L172.969 111.915L179.973 111.868ZM179.648 64.585L172.645 64.6261L172.645 64.6267L179.648 64.585ZM179.501 45.2108L186.504 45.1697L186.504 45.1566L179.501 45.2108ZM179.323 12.8552L172.32 12.8348L172.32 12.8434L172.32 12.8519L179.323 12.8552ZM179.325 12.2913L186.328 12.3116L186.334 10.1087L185.075 8.29943L179.325 12.2913ZM179.008 11.8358L172.938 15.323L173.087 15.5821L173.258 15.8276L179.008 11.8358ZM149.048 48.1699L155.253 51.4156L155.259 51.4051L155.264 51.3946L149.048 48.1699ZM135.357 74.3357L128.425 73.34L141.554 77.5969L135.357 74.3357ZM138.573 51.9518L145.505 52.9475L145.507 52.9361L145.508 52.9248L138.573 51.9518ZM142.664 23.3876L135.771 22.1514L135.75 22.2687L135.733 22.3866L142.664 23.3876ZM142.699 23.1947L149.592 24.4308L149.68 23.9413L149.697 23.4443L142.699 23.1947ZM143.089 20.2784L136.195 19.0426L143.089 20.2784ZM143.454 18.0546L143.43 11.0578L137.078 11.0772L136.482 17.3949L143.454 18.0546ZM155.903 18.0809L155.985 11.0846L155.977 11.0845L155.97 11.0844L155.903 18.0809ZM164.865 18.1075L171.038 21.4139L176.601 11.0429L164.822 11.1108L164.865 18.1075ZM129.65 58.9345L122.716 57.9465L122.714 57.9617L122.712 57.9768L129.65 58.9345ZM125.473 88.3461L123.572 95.0794L131.255 97.2478L132.403 89.3548L125.473 88.3461ZM65.572 71.6138L63.7003 78.3555L63.7031 78.3562L65.572 71.6138ZM38.7427 64.1768L40.6143 57.4352L40.3039 57.349L39.9869 57.2918L38.7427 64.1768ZM38.6784 64.1652L36.993 70.9558L37.212 71.0101L37.4341 71.0502L38.6784 64.1652ZM32.7344 62.4937L30.6652 69.1773L30.7484 69.2031L30.8322 69.2267L32.7344 62.4937ZM28.8147 61.3871L26.3866 54.8235L6.14595 62.2915L26.9227 68.123L28.8147 61.3871ZM44.2591 55.4501L41.7014 48.9358L41.6926 48.9392L41.6839 48.9427L44.2591 55.4501ZM57.9602 50.1605L60.4265 56.7099L60.4553 56.6991L60.4841 56.688L57.9602 50.1605ZM135.167 20.3735L142.098 21.3844L143.825 9.53369L132.644 13.846L135.167 20.3735ZM162.035 146.16L168.188 142.821L168.179 142.804L168.17 142.788L162.035 146.16ZM154.864 133.182L148.725 136.548L148.744 136.583L148.764 136.618L154.864 133.182ZM149.154 122.792L155.301 119.442L155.296 119.432L155.291 119.423L149.154 122.792ZM139.989 106.301L133.788 109.551L133.846 109.661L133.908 109.77L139.989 106.301ZM139.469 105.311L145.67 102.062L145.656 102.035L145.642 102.009L139.469 105.311ZM133.484 94.6058L127.219 91.4763L125.502 94.9098L127.478 98.2027L133.484 94.6058ZM134.4 93.0126L140.197 96.9402L140.334 96.7388L140.456 96.5285L134.4 93.0126ZM135.526 90.9926L129.315 87.7581L129.222 87.9379L129.138 88.1229L135.526 90.9926ZM152.291 58.9775L158.486 62.244L158.491 62.2331L152.291 58.9775ZM169.266 26.5356L176.269 26.5105L163.056 23.2992L169.266 26.5356ZM169.609 78.5342L176.612 78.4877L176.612 78.4785L176.611 78.4693L169.609 78.5342ZM169.891 123.088L162.888 123.112L162.888 123.139L162.888 123.166L169.891 123.088ZM170.019 140.899L177.022 140.871L177.022 140.854L177.022 140.838L170.019 140.899ZM170.188 160.709L164.126 164.21L177.628 187.535L177.19 160.597L170.188 160.709ZM32.2396 72.2938L36.303 66.5965L36.2929 66.5894L32.2396 72.2938ZM27.9085 69.2212L29.7919 62.4828L23.7631 74.8592L27.9085 69.2212ZM84.1851 84.8671L86.0602 78.1264L86.0481 78.123L84.1851 84.8671ZM112.846 92.8341L110.95 99.5692L111.04 99.5944L111.13 99.6172L112.846 92.8341ZM118.415 94.3716L116.468 101.092L116.502 101.102L116.536 101.111L118.415 94.3716ZM125.698 96.3516L131.872 93.0506L130.377 90.2612L127.294 89.5394L125.698 96.3516ZM132.553 108.874L126.401 112.214L126.418 112.245L126.434 112.275L132.553 108.874ZM137.291 117.462L131.129 120.787L131.316 121.132L131.54 121.454L137.291 117.462ZM137.317 117.5L143.32 113.899L143.2 113.699L143.067 113.508L137.317 117.5ZM140.324 122.955L146.492 119.644L146.489 119.637L140.324 122.955ZM144.707 131.115L150.964 127.974L150.922 127.892L150.878 127.81L144.707 131.115ZM144.854 131.407L138.597 134.547L138.68 134.713L138.772 134.873L144.854 131.407ZM158.489 155.94L164.64 152.598L164.634 152.586L164.628 152.575L158.489 155.94ZM164.104 166.114L159.911 171.716L170.247 162.756L164.104 166.114ZM162.335 164.865L166.409 159.175L166.364 159.143L166.319 159.112L162.335 164.865ZM157.419 161.355L161.571 155.722L161.524 155.687L161.476 155.653L157.419 161.355ZM145.517 152.899L141.456 158.597L141.46 158.6L145.517 152.899ZM173.156 0.756975C163.384 0.719337 152.988 0.694139 142.766 0.601714L142.644 14.5947C152.913 14.6876 163.363 14.7129 173.106 14.7504L173.156 0.756975ZM142.962 0.606225C142.749 0.598355 142.184 0.572786 141.509 0.617394L142.439 14.5804C142.403 14.5828 142.371 14.5841 142.346 14.5847C142.32 14.5853 142.304 14.5853 142.299 14.5852C142.295 14.5852 142.301 14.5852 142.326 14.5859C142.338 14.5863 142.354 14.5868 142.374 14.5875C142.385 14.5879 142.396 14.5883 142.408 14.5887C142.42 14.5892 142.433 14.5897 142.448 14.5902L142.962 0.606225ZM142.231 0.60691C140.968 0.560174 138.673 0.498725 136.181 1.25707L140.268 14.6432C140.295 14.635 140.4 14.6068 140.641 14.5901C140.896 14.5724 141.215 14.5723 141.717 14.5909L142.231 0.60691ZM137.225 1.02468L137.123 1.03938L139.122 14.8903L139.225 14.8756L137.225 1.02468ZM135.59 1.44061C114.15 9.74111 92.326 18.1386 71.2055 26.2702L76.2459 39.328C97.3617 31.1982 119.199 22.7953 140.655 14.489L135.59 1.44061ZM71.2015 26.2717C61.6232 29.9662 52.0542 33.6541 42.4841 37.3424C32.9144 41.0305 23.3436 44.7191 13.7633 48.4143L18.8116 61.4691C28.3899 57.7746 37.959 54.0867 47.529 50.3984C57.0987 46.7102 66.6695 43.0217 76.2499 39.3265L71.2015 26.2717ZM13.9462 48.3467C13.4571 48.5198 12.8931 48.7193 12.2788 48.9516L17.2414 62.0391C17.6959 61.8672 18.1248 61.7151 18.6287 61.5367L13.9462 48.3467ZM12.4762 48.8803C10.7751 49.4661 7.46691 50.5683 4.62364 53.1198L13.9851 63.5319C14.1853 63.3521 14.4935 63.1403 15.0056 62.8966C15.5476 62.6386 16.1607 62.4145 17.0441 62.1104L12.4762 48.8803ZM4.53286 53.2027C3.21977 54.4234 2.3662 55.7998 1.80921 57.1308L14.732 62.5323C14.6934 62.6244 14.6216 62.7732 14.5031 62.9489C14.3822 63.1281 14.237 63.2991 14.0759 63.4489L4.53286 53.2027ZM1.51716 57.9772L1.32605 58.6728L14.8329 62.3814L15.024 61.6858L1.51716 57.9772ZM1.22183 59.1057C0.649193 61.8677 1.19859 64.2594 1.41457 65.1383L15.0169 61.806C15.0002 61.738 14.9901 61.6908 14.9831 61.6529C14.976 61.6143 14.9739 61.5938 14.9735 61.5899C14.9731 61.5854 14.9759 61.6119 14.9738 61.6661C14.9718 61.7205 14.9643 61.8176 14.9371 61.9485L1.22183 59.1057ZM1.42882 65.1952L1.52628 65.5779L15.1001 62.1317L15.0027 61.749L1.42882 65.1952ZM2.56297 67.8466L3.77763 69.5927L15.2781 61.609L14.0635 59.8629L2.56297 67.8466ZM5.09502 71.0161L5.35573 71.2291L14.2214 60.3987L13.9607 60.1856L5.09502 71.0161ZM5.71388 71.5031C36.2784 93.359 67.4034 115.451 97.4666 136.842L105.589 125.445C75.5081 104.041 44.4099 81.968 13.8633 60.1248L5.71388 71.5031ZM97.4683 136.843C120.626 153.31 144.629 170.354 168.156 187.116L176.285 175.723C152.752 158.957 128.734 141.903 105.587 125.444L97.4683 136.843ZM167.985 186.99C172.17 190.167 177.366 189.811 181.194 187.62L174.226 175.478C174.291 175.441 174.543 175.318 174.981 175.327C175.447 175.335 175.991 175.496 176.456 175.849L167.985 186.99ZM181.707 187.295L182.087 187.032L174.092 175.539L173.713 175.802L181.707 187.295ZM182.087 187.032C185.558 184.622 187.854 180.477 187.399 175.879L173.461 177.25C173.36 176.234 173.883 175.684 174.092 175.539L182.087 187.032ZM187.433 176.517L186.976 111.821L172.969 111.915L173.427 176.611L187.433 176.517ZM186.976 111.826C186.926 103.949 186.87 96.062 186.813 88.1789C186.757 80.2948 186.701 72.414 186.651 64.5433L172.645 64.6267C172.695 72.5042 172.751 80.3908 172.807 88.2739C172.864 96.1581 172.92 104.039 172.969 111.91L186.976 111.826ZM186.651 64.5438C186.631 61.3129 186.604 58.0736 186.578 54.8426C186.551 51.6092 186.524 48.3841 186.504 45.1697L172.498 45.2519C172.518 48.4829 172.545 51.7222 172.572 54.9532C172.598 58.1866 172.625 61.4117 172.645 64.6261L186.651 64.5438ZM186.504 45.1566C186.418 34.5138 186.325 23.5761 186.327 12.8584L172.32 12.8519C172.319 23.6385 172.412 34.6374 172.498 45.265L186.504 45.1566ZM186.327 12.8755L186.328 12.3116L172.322 12.2709L172.32 12.8348L186.327 12.8755ZM185.075 8.29943L184.758 7.84393L173.258 15.8276L173.575 16.2831L185.075 8.29943ZM185.078 8.34854C184.537 7.40766 183.418 5.59703 181.606 3.99536C179.711 2.32038 176.789 0.657539 172.943 0.759379L173.319 14.748C173.203 14.7511 173.07 14.7414 172.93 14.714C172.791 14.6869 172.668 14.6471 172.567 14.6046C172.37 14.5217 172.294 14.4455 172.328 14.4748C172.364 14.5068 172.452 14.5956 172.578 14.7647C172.7 14.9292 172.819 15.116 172.938 15.323L185.078 8.34854ZM142.843 44.9242C138.33 53.5405 133.788 62.2923 129.16 71.0744L141.554 77.5969C146.188 68.8046 150.779 59.9587 155.253 51.4156L142.843 44.9242ZM142.29 75.3313C142.824 71.612 143.36 67.8765 143.897 64.1404C144.434 60.4045 144.971 56.668 145.505 52.9475L131.641 50.9562C131.107 54.6755 130.57 58.411 130.033 62.147C129.496 65.883 128.959 69.6195 128.425 73.34L142.29 75.3313ZM145.508 52.9248C146.817 43.5887 148.222 33.905 149.596 24.3885L135.733 22.3866C134.361 31.8876 132.951 41.6073 131.637 50.9788L145.508 52.9248ZM149.558 24.6237L149.592 24.4308L135.805 21.9586L135.771 22.1514L149.558 24.6237ZM149.697 23.4443C149.709 23.1102 149.778 22.6548 149.982 21.5142L136.195 19.0426C136.031 19.9593 135.753 21.4325 135.7 22.9451L149.697 23.4443ZM149.982 21.5142C150.04 21.1888 150.316 19.8836 150.426 18.7142L136.482 17.3949C136.444 17.7917 136.39 17.9535 136.195 19.0426L149.982 21.5142ZM143.478 25.0513C147.621 25.0387 151.804 25.0378 155.837 25.0773L155.97 11.0844C151.847 11.044 147.594 11.0451 143.43 11.0578L143.478 25.0513ZM155.822 25.0771C158.814 25.1129 161.842 25.1219 164.908 25.1042L164.822 11.1108C161.837 11.128 158.892 11.1193 155.985 11.0846L155.822 25.0771ZM158.692 14.8011C153.283 24.8869 147.958 35.0777 142.832 44.9453L155.264 51.3946C160.382 41.5422 165.673 31.4167 171.038 21.4139L158.692 14.8011ZM122.712 57.9768C121.384 67.6053 119.971 77.5203 118.543 87.3374L132.403 89.3548C133.835 79.5115 135.253 69.5616 136.587 59.8922L122.712 57.9768ZM127.375 81.6128C107.414 75.9798 87.0962 70.3158 67.4409 64.8714L63.7031 78.3562C83.3439 83.7966 103.639 89.4543 123.572 95.0794L127.375 81.6128ZM67.4436 64.8722C62.9815 63.6343 58.5035 62.3935 54.0268 61.1531C49.5497 59.9125 45.0739 58.6724 40.6143 57.4352L36.871 70.9185C41.3331 72.1564 45.8111 73.3971 50.2879 74.6376C54.7649 75.8781 59.2408 77.1183 63.7003 78.3555L67.4436 64.8722ZM39.9869 57.2918L39.9226 57.2801L37.4341 71.0502L37.4984 71.0619L39.9869 57.2918ZM40.3637 57.3746C38.5262 56.9188 36.8656 56.3898 34.6367 55.7606L30.8322 69.2267C32.523 69.7041 34.8878 70.4336 36.993 70.9558L40.3637 57.3746ZM34.8037 55.81C33.4021 55.3764 31.8326 54.9671 30.7067 54.6511L26.9227 68.123C28.4528 68.5525 29.4866 68.8128 30.6652 69.1773L34.8037 55.81ZM31.2428 67.9507C36.5099 66.0073 41.7452 63.9664 46.8344 61.9575L41.6839 48.9427C36.6231 50.9403 31.5039 52.9354 26.3866 54.8235L31.2428 67.9507ZM46.8169 61.9644C51.2864 60.2141 55.8856 58.4154 60.4265 56.7099L55.4939 43.6111C50.848 45.3561 46.1614 47.1892 41.7014 48.9358L46.8169 61.9644ZM60.4841 56.688C73.3464 51.7276 86.218 46.7606 99.089 41.794C111.96 36.8272 124.831 31.8608 137.691 26.901L132.644 13.846C119.781 18.8064 106.91 23.7734 94.0386 28.74C81.1675 33.7068 68.2971 38.6732 55.4363 43.633L60.4841 56.688ZM128.237 19.3626C126.354 32.2792 124.511 45.341 122.716 57.9465L136.583 59.9224C138.382 47.2921 140.219 34.2706 142.098 21.3844L128.237 19.3626ZM168.17 142.788C165.844 138.565 163.407 134.076 160.963 129.747L148.764 136.618C151.16 140.863 153.516 145.205 155.9 149.532L168.17 142.788ZM161.002 129.817C159.087 126.332 157.147 122.821 155.301 119.442L143.007 126.142C144.862 129.539 146.834 133.106 148.725 136.548L161.002 129.817ZM155.291 119.423C152.327 114.037 149.215 108.337 146.07 102.833L133.908 109.77C136.981 115.147 140.019 120.713 143.018 126.161L155.291 119.423ZM146.19 103.052L145.67 102.062L133.268 108.561L133.788 109.551L146.19 103.052ZM145.642 102.009C143.75 98.482 141.709 94.7059 139.49 91.009L127.478 98.2027C129.504 101.578 131.404 105.085 133.296 108.614L145.642 102.009ZM139.749 97.7353C139.932 97.3685 140.074 97.1224 140.197 96.9402L128.603 89.085C128.005 89.9669 127.553 90.8083 127.219 91.4763L139.749 97.7353ZM140.456 96.5285C140.597 96.2871 141.384 95.0412 141.914 93.8623L129.138 88.1229C129.112 88.1821 129.058 88.2898 128.927 88.5151C128.859 88.6317 128.787 88.7533 128.685 88.9228C128.591 89.0789 128.469 89.2829 128.344 89.4967L140.456 96.5285ZM141.737 94.227C147.306 83.5488 152.864 72.8893 158.486 62.244L146.097 55.711C140.456 66.3936 134.881 77.0852 129.315 87.7581L141.737 94.227ZM158.491 62.2331C164.091 51.5846 169.811 40.6281 175.476 29.7721L163.056 23.2992C157.39 34.1568 151.679 45.0952 146.091 55.7219L158.491 62.2331ZM162.263 26.5608C162.331 43.9734 162.441 61.5292 162.606 78.5991L176.611 78.4693C176.447 61.4307 176.338 43.902 176.269 26.5105L162.263 26.5608ZM162.606 78.5808C162.708 93.213 162.832 108.249 162.888 123.112L176.894 123.064C176.838 108.172 176.714 93.0965 176.612 78.4877L162.606 78.5808ZM162.888 123.166C162.957 129.122 162.962 135.02 163.016 140.961L177.022 140.838C176.97 135.144 176.961 128.893 176.894 123.01L162.888 123.166ZM163.016 140.928C163.045 147.433 163.077 154.149 163.185 160.82L177.19 160.597C177.083 154.021 177.051 147.385 177.022 140.871L163.016 140.928ZM176.249 157.207C173.496 152.452 170.787 147.598 168.188 142.821L155.883 149.5C158.529 154.365 161.3 159.329 164.126 164.21L176.249 157.207ZM36.2929 66.5894C34.7211 65.4743 33.3792 64.5562 32.0539 63.5833L23.7631 74.8592C25.1965 75.9114 26.8707 77.0649 28.1863 77.9982L36.2929 66.5894ZM26.025 75.9596C44.8767 81.225 63.8631 86.5154 82.3221 91.6111L86.0481 78.123C67.6097 73.033 48.6395 67.7471 29.7919 62.4828L26.025 75.9596ZM82.31 91.6078C91.892 94.2714 101.382 96.8789 110.95 99.5692L114.741 86.0991C105.149 83.4021 95.5853 80.7742 86.0602 78.1264L82.31 91.6078ZM111.13 99.6172C112.845 100.051 114.638 100.562 116.468 101.092L120.362 87.6512C118.529 87.1208 116.531 86.5491 114.561 86.0511L111.13 99.6172ZM116.536 101.111C118.7 101.714 121.427 102.537 124.103 103.164L127.294 89.5394C124.998 89.0018 122.875 88.3512 120.294 87.6321L116.536 101.111ZM119.525 99.6526C121.784 103.869 124.259 108.278 126.401 112.214L138.706 105.533C136.401 101.298 134.142 97.286 131.872 93.0506L119.525 99.6526ZM126.434 112.275C128.021 115.122 129.582 117.926 131.129 120.787L143.452 114.138C141.856 111.187 140.252 108.308 138.672 105.473L126.434 112.275ZM131.54 121.454L131.567 121.492L143.067 113.508L143.041 113.47L131.54 121.454ZM131.314 121.102C132.277 122.703 133.101 124.311 134.16 126.274L146.489 119.637C145.603 117.996 144.506 115.871 143.32 113.899L131.314 121.102ZM134.156 126.267C134.827 127.513 135.921 129.55 136.849 131.278C137.312 132.141 137.734 132.927 138.039 133.496C138.192 133.781 138.316 134.012 138.402 134.171C138.445 134.251 138.478 134.313 138.5 134.355C138.512 134.376 138.52 134.392 138.526 134.403C138.529 134.408 138.531 134.412 138.533 134.415C138.533 134.416 138.534 134.417 138.534 134.418C138.534 134.418 138.535 134.419 138.535 134.419C138.535 134.419 138.535 134.419 138.535 134.419C138.535 134.419 138.535 134.419 144.707 131.115C150.878 127.81 150.878 127.81 150.878 127.81C150.878 127.81 150.878 127.81 150.878 127.81C150.878 127.81 150.878 127.809 150.878 127.809C150.878 127.808 150.877 127.807 150.876 127.806C150.875 127.803 150.873 127.799 150.87 127.794C150.864 127.783 150.855 127.767 150.844 127.746C150.821 127.704 150.788 127.642 150.745 127.562C150.66 127.402 150.536 127.171 150.383 126.886C150.077 126.316 149.655 125.531 149.191 124.667C148.264 122.94 147.167 120.897 146.492 119.644L134.156 126.267ZM138.45 134.255L138.597 134.547L151.111 128.266L150.964 127.974L138.45 134.255ZM138.772 134.873C143.387 142.952 147.907 151.215 152.35 159.304L164.628 152.575C160.207 144.527 155.623 136.144 150.935 127.94L138.772 134.873ZM152.337 159.282C154.119 162.553 156.186 166.232 157.961 169.472L170.247 162.756C168.269 159.145 166.507 156.025 164.64 152.598L152.337 159.282ZM168.298 160.512C167.7 160.065 166.608 159.317 166.409 159.175L158.262 170.555C159.182 171.212 159.337 171.287 159.911 171.716L168.298 160.512ZM166.319 159.112C164.754 158.03 163.133 156.871 161.571 155.722L153.266 166.988C154.932 168.213 156.666 169.453 158.352 170.619L166.319 159.112ZM161.476 155.653L149.575 147.197L141.46 158.6L153.361 167.056L161.476 155.653ZM149.579 147.2C111.817 120.33 74.0875 93.502 36.303 66.5965L28.1762 77.991C65.963 104.898 103.699 131.731 141.456 158.597L149.579 147.2Z" fill="black" mask="url(#path-1-outside-1_2009_218)"/>
<defs>
<filter id="filter0_i_2009_218" x="0.969238" y="0.582153" width="186.487" height="192.737" filterUnits="userSpaceOnUse" color-interpolation-filters="sRGB">
<feFlood flood-opacity="0" result="BackgroundImageFix"/>
<feBlend mode="normal" in="SourceGraphic" in2="BackgroundImageFix" result="shape"/>
<feColorMatrix in="SourceAlpha" type="matrix" values="0 0 0 0 0 0 0 0 0 0 0 0 0 0 0 0 0 0 127 0" result="hardAlpha"/>
<feOffset dy="4"/>
<feGaussianBlur stdDeviation="2"/>
<feComposite in2="hardAlpha" operator="arithmetic" k2="-1" k3="1"/>
<feColorMatrix type="matrix" values="0 0 0 0 0 0 0 0 0 0 0 0 0 0 0 0 0 0 0.45 0"/>
<feBlend mode="normal" in2="shape" result="effect1_innerShadow_2009_218"/>
</filter>
</defs>
</svg>
