<svg width="189" height="196" viewBox="0 0 189 196" fill="none" xmlns="http://www.w3.org/2000/svg">
<g filter="url(#filter0_di_2009_218)">
<path d="M173.131 7.75371C163.374 7.71613 152.95 7.69085 142.705 7.59822C142.474 7.58967 142.243 7.58112 141.974 7.5989C140.819 7.55616 139.524 7.55446 138.225 7.95012L138.123 7.96482C116.674 16.2682 94.8438 24.6684 73.7257 32.7991C54.567 40.1887 35.4462 47.552 16.2874 54.9417C15.791 55.1175 15.2945 55.2932 14.7601 55.4953C12.9904 56.1047 10.9666 56.8342 9.30436 58.3258C8.82614 58.7704 8.50299 59.2762 8.2706 59.8315L8.07949 60.5271C7.83411 61.7106 8.06213 62.847 8.21576 63.4721L8.31321 63.8548L9.52788 65.6009L9.78858 65.8139C40.3442 87.6635 71.4557 109.746 101.528 131.143C124.68 147.606 148.69 164.656 172.22 181.419C173.77 182.595 175.86 182.608 177.71 181.549L178.089 181.285C179.72 180.153 180.607 178.355 180.43 176.564L179.973 111.868C179.873 96.1195 179.747 80.3333 179.648 64.585C179.608 58.1396 179.541 51.6562 179.501 45.2108C179.415 34.5756 179.322 23.6073 179.323 12.8552L179.325 12.2913L179.008 11.8358C178.198 10.4282 176.334 7.6689 173.131 7.75371ZM149.048 48.1699C144.554 56.7496 139.988 65.5484 135.357 74.3357C136.425 66.8958 137.505 59.3917 138.573 51.9518C139.884 42.598 141.292 32.8963 142.664 23.3876L142.699 23.1947C142.731 22.2714 142.904 21.307 143.089 20.2784C143.215 19.5712 143.38 18.8377 143.454 18.0546C147.608 18.0419 151.826 18.0409 155.903 18.0809C158.853 18.1161 161.84 18.1249 164.865 18.1075C159.478 28.1518 154.17 38.31 149.048 48.1699ZM129.65 58.9345C128.318 68.5834 126.903 78.5159 125.473 88.3461C105.526 82.7171 85.22 77.0562 65.572 71.6138C56.6503 69.1387 47.6643 66.6519 38.7427 64.1768L38.6784 64.1652C36.707 63.6762 34.6943 63.047 32.7344 62.4937C31.4443 62.0946 30.1427 61.7598 28.8147 61.3871C34.0069 59.4713 39.1841 57.4534 44.2591 55.4501C48.7239 53.7016 53.3668 51.8857 57.9602 50.1605C83.6833 40.2403 109.444 30.2937 135.167 20.3735C133.286 33.2749 131.447 46.3165 129.65 58.9345ZM162.035 146.16C159.68 141.885 157.283 137.469 154.864 133.182C152.961 129.719 151.005 126.18 149.154 122.792C146.173 117.375 143.098 111.742 139.989 106.301L139.469 105.311C137.577 101.784 135.606 98.1421 133.484 94.6058C133.743 94.0884 134.039 93.5447 134.4 93.0126C134.785 92.3519 135.195 91.7292 135.526 90.9926C141.093 80.317 146.66 69.6414 152.291 58.9775C157.885 48.3399 163.6 37.3924 169.266 26.5356C169.334 43.9377 169.444 61.4799 169.609 78.5342C169.711 93.1547 169.835 108.211 169.891 123.088C169.959 129.008 169.966 135.082 170.019 140.899C170.048 147.409 170.08 154.085 170.188 160.709C167.398 155.89 164.658 150.981 162.035 146.16ZM32.2396 72.2938C30.7959 71.2696 29.2878 70.2338 27.9085 69.2212C46.7581 74.4861 65.7364 79.7742 84.1851 84.8671C93.7386 87.5228 103.266 90.1405 112.846 92.8341C114.688 93.2999 116.584 93.8416 118.415 94.3716C120.787 95.0326 123.212 95.7696 125.698 96.3516C127.963 100.577 130.33 104.788 132.553 108.874C134.136 111.715 135.719 114.557 137.291 117.462L137.317 117.5C138.391 119.287 139.352 121.153 140.324 122.955C141.67 125.455 144.707 131.115 144.707 131.115L144.854 131.407C149.505 139.548 154.057 147.871 158.489 155.94C160.313 159.289 162.227 162.688 164.104 166.114C163.518 165.676 162.895 165.265 162.335 164.865C160.71 163.742 159.032 162.542 157.419 161.355L145.517 152.899C107.758 126.03 70.0253 99.2 32.2396 72.2938Z" fill="#E84341"/>
<path d="M137.486 4.52174C139.196 4.05181 140.804 4.05871 141.945 4.09731C142.296 4.08305 142.592 4.09324 142.785 4.10041C151.182 4.17617 159.697 4.20668 167.876 4.23601C169.633 4.2423 171.375 4.24854 173.097 4.25516C175.792 4.20144 177.866 5.3594 179.287 6.61523C180.603 7.77873 181.474 9.11963 181.965 9.95683L182.2 10.2953L182.829 11.2L182.827 12.3014L182.825 12.8568C182.825 12.8577 182.825 12.8586 182.825 12.8595C182.824 23.1502 182.909 33.6413 182.992 43.864L183.003 45.1837L183.003 45.1902C183.023 48.4088 183.049 51.6375 183.076 54.8702C183.103 58.1018 183.129 61.3376 183.149 64.5644C183.199 72.4368 183.255 80.3189 183.312 88.2027L183.312 88.2249C183.368 96.1 183.424 103.977 183.474 111.844L137.486 4.52174ZM137.486 4.52174L137.228 4.55879L136.856 4.7027C117.285 12.2794 97.3957 19.9367 78.0161 27.3977C76.161 28.1119 74.3106 28.8243 72.4656 29.5346L72.4636 29.5354C62.8879 33.2288 53.3217 36.9156 43.7549 40.6027L43.7453 40.6064C34.1907 44.2887 24.6355 47.9713 15.0708 51.6605C14.6055 51.8252 14.1069 52.002 13.5695 52.2046C11.8332 52.8025 9.19581 53.72 6.964 55.7228L6.94112 55.7433L6.91861 55.7643C6.02295 56.5969 5.4346 57.538 5.0399 58.4812L4.95331 58.6881L4.89388 58.9044L4.70277 59.5999L4.67326 59.7073L4.65066 59.8164C4.24165 61.7892 4.63036 63.5532 4.81517 64.3052L4.81867 64.3194L4.82229 64.3337L4.91974 64.7163L5.07612 65.3304L5.43809 65.8507L6.65276 67.5968L6.9323 67.9986L7.31145 68.3085L7.57215 68.5215L7.65948 68.5929L7.75123 68.6585C30.7291 85.0894 54.0225 101.653 76.9477 117.955C84.5125 123.334 92.0372 128.685 99.4972 133.993L99.4981 133.993C106.365 138.876 113.307 143.811 120.289 148.773C136.838 160.536 153.612 172.458 170.151 184.241C173.011 186.379 176.629 186.2 179.452 184.584L179.584 184.508L179.709 184.422L180.088 184.158C182.591 182.421 184.17 179.528 183.931 176.403L183.474 111.847L137.486 4.52174ZM155.865 21.579C156.915 21.5915 157.968 21.6008 159.027 21.6067C154.575 29.9758 150.192 38.371 145.943 46.5525C144.543 49.2249 143.138 51.9144 141.728 54.6159C141.831 53.8967 141.935 53.1748 142.039 52.4496L142.041 52.4383C143.182 44.2988 144.396 35.8956 145.597 27.5774C145.772 26.3651 145.947 25.1545 146.121 23.9469L146.145 23.8128L146.189 23.568L146.198 23.3195C146.216 22.8259 146.294 22.2821 146.42 21.5463C149.595 21.5421 152.772 21.5487 155.865 21.579ZM126.183 58.4405L126.182 58.4481L126.181 58.4556C125.029 66.8052 123.814 75.3687 122.58 83.8957C103.867 78.623 84.8977 73.3369 66.5064 68.2426C62.0537 67.0073 57.5851 65.7691 53.117 64.5311L53.0921 64.5242C48.7147 63.3113 44.3379 62.0986 39.9763 60.8886C41.8447 60.1618 43.7016 59.4322 45.5422 58.7056C50.0081 56.9567 54.6276 55.15 59.1934 53.4352L59.2078 53.4298L59.2221 53.4242C72.0841 48.464 84.9554 43.4972 97.8264 38.5305L97.8887 38.5064C108.876 34.2668 119.862 30.0273 130.843 25.7919C129.674 33.883 128.521 41.9951 127.385 49.9857C126.982 52.8214 126.582 55.6418 126.183 58.4405ZM165.112 144.49L165.107 144.482L165.103 144.474C164.46 143.307 163.811 142.124 163.158 140.934C161.436 137.796 159.684 134.601 157.923 131.482C157.289 130.328 156.651 129.169 156.013 128.011C154.735 125.688 153.459 123.371 152.228 121.117L152.223 121.108C151.779 120.302 151.333 119.49 150.884 118.674C148.336 114.038 145.711 109.26 143.06 104.622L142.569 103.687L142.562 103.673L142.555 103.66C140.973 100.709 139.31 97.631 137.538 94.5861C137.565 94.5413 137.593 94.4936 137.623 94.4435C137.911 93.965 138.337 93.2585 138.674 92.529C144.228 81.8791 149.776 71.2385 155.389 60.6107L155.391 60.6053C158.838 54.0502 162.331 47.3779 165.829 40.683C165.896 53.4053 165.987 66.1126 166.107 78.5608C166.129 81.7388 166.153 84.9365 166.176 88.148C166.26 99.7161 166.345 111.462 166.389 123.1L166.389 123.114L166.39 123.127C166.428 126.478 166.447 129.844 166.465 133.197C166.48 135.784 166.494 138.364 166.518 140.924C166.527 142.972 166.536 145.039 166.548 147.117C166.066 146.24 165.587 145.364 165.112 144.49ZM109.787 123.184C88.6098 108.119 67.4335 93.0537 46.2429 77.9686C58.6823 81.4347 71.0813 84.8789 83.2505 88.2382C86.4417 89.1253 89.6263 90.0072 92.8089 90.8885C99.1675 92.6492 105.518 94.4078 111.898 96.2017L111.943 96.2143L111.988 96.2257C113.767 96.6753 115.611 97.2019 117.442 97.7318L117.459 97.7367L117.475 97.7414C118.05 97.9016 118.645 98.0713 119.255 98.2453C120.568 98.62 121.95 99.0144 123.351 99.3757C124.479 101.459 125.634 103.553 126.77 105.613C127.693 107.288 128.604 108.94 129.477 110.544L129.485 110.559L129.494 110.574C131.078 113.419 132.651 116.241 134.21 119.124L134.303 119.297L134.374 119.399C135.131 120.665 135.82 121.956 136.545 123.314C136.773 123.74 137.004 124.173 137.242 124.614C137.914 125.863 139.008 127.899 139.934 129.625L141.125 131.844L141.488 132.519L141.586 132.703L141.599 132.726L141.725 132.977L141.767 133.06L141.813 133.14C145.827 140.167 149.769 147.332 153.637 154.375L147.548 150.049C147.547 150.049 147.547 150.048 147.546 150.048C134.957 141.09 122.372 132.137 109.787 123.184Z" stroke="black" stroke-width="7"/>
</g>
<defs>
<filter id="filter0_di_2009_218" x="0.969238" y="0.582092" width="187.487" height="194.737" filterUnits="userSpaceOnUse" color-interpolation-filters="sRGB">
<feFlood flood-opacity="0" result="BackgroundImageFix"/>
<feColorMatrix in="SourceAlpha" type="matrix" values="0 0 0 0 0 0 0 0 0 0 0 0 0 0 0 0 0 0 127 0" result="hardAlpha"/>
<feOffset dx="1" dy="6"/>
<feComposite in2="hardAlpha" operator="out"/>
<feColorMatrix type="matrix" values="0 0 0 0 0 0 0 0 0 0 0 0 0 0 0 0 0 0 1 0"/>
<feBlend mode="normal" in2="BackgroundImageFix" result="effect1_dropShadow_2009_218"/>
<feBlend mode="normal" in="SourceGraphic" in2="effect1_dropShadow_2009_218" result="shape"/>
<feColorMatrix in="SourceAlpha" type="matrix" values="0 0 0 0 0 0 0 0 0 0 0 0 0 0 0 0 0 0 127 0" result="hardAlpha"/>
<feOffset dy="4"/>
<feGaussianBlur stdDeviation="2"/>
<feComposite in2="hardAlpha" operator="arithmetic" k2="-1" k3="1"/>
<feColorMatrix type="matrix" values="0 0 0 0 0 0 0 0 0 0 0 0 0 0 0 0 0 0 0.45 0"/>
<feBlend mode="normal" in2="shape" result="effect2_innerShadow_2009_218"/>
</filter>
</defs>
</svg>
