<svg width="209" height="213" viewBox="0 0 209 213" fill="none" xmlns="http://www.w3.org/2000/svg">
<g filter="url(#filter0_di_2009_173)">
<path d="M26.0573 93.9976C25.3844 89.4247 26.4438 84.7147 29.0029 80.9031C31.5624 77.0907 35.4125 74.4896 39.7062 73.6718L144.936 53.6305L143.162 41.5845C142.772 38.9418 141.817 36.4432 140.37 34.2817C138.924 32.1202 137.025 30.3536 134.821 29.1183C132.616 27.883 130.164 27.2121 127.655 27.1573C125.146 27.1026 122.646 27.6655 120.349 28.8026L35.0347 71.051C31.731 72.6864 29.0022 75.4316 27.2725 78.8598C25.5428 82.288 24.9091 86.2072 25.4699 90.008L26.0573 93.9976Z" fill="#E84341"/>
<path fill-rule="evenodd" clip-rule="evenodd" d="M56.2215 185.767L169.546 164.185C173.84 163.367 177.69 160.766 180.249 156.953C182.809 153.141 183.868 148.43 183.194 143.856L171.761 66.2513C171.087 61.6775 168.735 57.6159 165.222 54.9599C161.71 52.304 157.324 51.2713 153.031 52.0891L144.936 53.6305L39.7062 73.6718C35.4125 74.4896 31.5624 77.0907 29.0029 80.9031C26.4438 84.7147 25.3844 89.4247 26.0573 93.9976L26.0578 94.0006L37.4914 171.605C38.1653 176.179 40.5172 180.24 44.0298 182.896C47.5423 185.552 51.9278 186.585 56.2215 185.767ZM138.639 115.584C139.517 116.248 140.614 116.507 141.687 116.302C142.761 116.098 143.723 115.447 144.363 114.494C145.003 113.541 145.268 112.363 145.099 111.22C144.931 110.077 144.343 109.061 143.465 108.397C142.587 107.733 141.49 107.475 140.417 107.679C139.343 107.884 138.381 108.534 137.741 109.487C137.101 110.44 136.836 111.618 137.005 112.762C137.173 113.905 137.761 114.92 138.639 115.584Z" fill="#E84341"/>
<path d="M141.687 116.302C140.614 116.507 139.517 116.248 138.639 115.584C137.761 114.92 137.173 113.905 137.005 112.762C136.836 111.618 137.101 110.44 137.741 109.487C138.381 108.534 139.343 107.884 140.417 107.679C141.49 107.475 142.587 107.733 143.465 108.397C144.343 109.061 144.931 110.077 145.099 111.22C145.268 112.363 145.003 113.541 144.363 114.494C143.723 115.447 142.761 116.098 141.687 116.302Z" fill="#E84341"/>
<path d="M39.7062 73.6718C35.4125 74.4896 31.5624 77.0907 29.0029 80.9031C26.4438 84.7147 25.3844 89.4247 26.0573 93.9976M39.7062 73.6718L153.031 52.0891M39.7062 73.6718L144.936 53.6305M153.031 52.0891C157.324 51.2713 161.71 52.304 165.222 54.9599C168.735 57.6159 171.087 61.6775 171.761 66.2513L183.194 143.856C183.868 148.43 182.809 153.141 180.249 156.953C177.69 160.766 173.84 163.367 169.546 164.185L56.2215 185.767C51.9278 186.585 47.5423 185.552 44.0298 182.896C40.5172 180.24 38.1653 176.179 37.4914 171.605L26.0578 94.0006L26.0573 93.9976M153.031 52.0891L144.936 53.6305M144.936 53.6305L143.162 41.5845C142.772 38.9418 141.817 36.4432 140.37 34.2817C138.924 32.1202 137.025 30.3536 134.821 29.1183C132.616 27.883 130.164 27.2121 127.655 27.1573C125.146 27.1026 122.646 27.6655 120.349 28.8026L35.0347 71.051C31.731 72.6864 29.0022 75.4316 27.2725 78.8598C25.5428 82.288 24.9091 86.2072 25.4699 90.008L26.0573 93.9976M141.687 116.302C140.614 116.507 139.517 116.248 138.639 115.584C137.761 114.92 137.173 113.905 137.005 112.762C136.836 111.618 137.101 110.44 137.741 109.487C138.381 108.534 139.343 107.884 140.417 107.679C141.49 107.475 142.587 107.733 143.465 108.397C144.343 109.061 144.931 110.077 145.099 111.22C145.268 112.363 145.003 113.541 144.363 114.494C143.723 115.447 142.761 116.098 141.687 116.302Z" stroke="black" stroke-width="9"/>
</g>
<defs>
<filter id="filter0_di_2009_173" x="16.7876" y="18.6372" width="173.088" height="177.92" filterUnits="userSpaceOnUse" color-interpolation-filters="sRGB">
<feFlood flood-opacity="0" result="BackgroundImageFix"/>
<feColorMatrix in="SourceAlpha" type="matrix" values="0 0 0 0 0 0 0 0 0 0 0 0 0 0 0 0 0 0 127 0" result="hardAlpha"/>
<feOffset dx="2" dy="6"/>
<feComposite in2="hardAlpha" operator="out"/>
<feColorMatrix type="matrix" values="0 0 0 0 0 0 0 0 0 0 0 0 0 0 0 0 0 0 1 0"/>
<feBlend mode="normal" in2="BackgroundImageFix" result="effect1_dropShadow_2009_173"/>
<feBlend mode="normal" in="SourceGraphic" in2="effect1_dropShadow_2009_173" result="shape"/>
<feColorMatrix in="SourceAlpha" type="matrix" values="0 0 0 0 0 0 0 0 0 0 0 0 0 0 0 0 0 0 127 0" result="hardAlpha"/>
<feOffset dx="-20" dy="-17"/>
<feGaussianBlur stdDeviation="2"/>
<feComposite in2="hardAlpha" operator="arithmetic" k2="-1" k3="1"/>
<feColorMatrix type="matrix" values="0 0 0 0 0 0 0 0 0 0 0 0 0 0 0 0 0 0 0.45 0"/>
<feBlend mode="normal" in2="shape" result="effect2_innerShadow_2009_173"/>
</filter>
</defs>
</svg>
